<svg xmlns="http://www.w3.org/2000/svg" xmlns:xlink="http://www.w3.org/1999/xlink" width="107.001" height="137.692" viewBox="0 0 107.001 137.692">
  <defs>
    <clipPath id="clip-path">
      <rect id="Rectangle_234" data-name="Rectangle 234" width="107.001" height="137.692" fill="#48586f"/>
    </clipPath>
  </defs>
  <g id="Group_269" data-name="Group 269" transform="translate(0)">
    <g id="Group_268" data-name="Group 268" transform="translate(0)" clip-path="url(#clip-path)">
      <path id="Path_296" data-name="Path 296" d="M83.382,248.5a9.049,9.049,0,0,0-5.919-2.645l3.925-3.926A10.091,10.091,0,0,0,74.075,224.7,10.092,10.092,0,0,0,65.785,209l16.852-16.852a10.094,10.094,0,1,0-14.275-14.275L22.711,223.523V209.132a11.355,11.355,0,1,0-22.711,0v44.219a37.851,37.851,0,0,0,64.615,26.761l18.766-18.766a9.084,9.084,0,0,0,0-12.847M59.8,279.075A33.815,33.815,0,0,1,4.037,253.351v-44.22a7.318,7.318,0,1,1,14.635,0v18.055a2.5,2.5,0,0,0,.735,1.781,2.533,2.533,0,0,0,3.578-.009l48.232-48.232a6.056,6.056,0,0,1,8.565,8.565L41.657,227.416a2.523,2.523,0,1,0,3.569,3.569L61.4,214.807a6.056,6.056,0,1,1,8.565,8.565L55.6,237.735a2.523,2.523,0,1,0,3.569,3.569l10.8-10.8a6.056,6.056,0,1,1,8.565,8.565L65.924,251.683a2.523,2.523,0,1,0,3.569,3.569l3.9-3.9a5.047,5.047,0,0,1,7.14,7.135Z" transform="translate(0 -153.507)" fill="#48586f"/>
      <path id="Path_297" data-name="Path 297" d="M774.383,73.767a2.019,2.019,0,1,1,0-2.855,2.019,2.019,0,0,1,0,2.855" transform="translate(-676.58 -61.714)" fill="#48586f"/>
      <path id="Path_298" data-name="Path 298" d="M736.825,117.85a1.514,1.514,0,1,1,0-2.141,1.514,1.514,0,0,1,0,2.141" transform="translate(-644.375 -101.158)" fill="#48586f"/>
      <path id="Path_299" data-name="Path 299" d="M706.557,154.643a1.009,1.009,0,1,1,0-1.427,1.009,1.009,0,0,1,0,1.427" transform="translate(-618.568 -134.204)" fill="#48586f"/>
      <path id="Path_300" data-name="Path 300" d="M805.79,113.222a2.019,2.019,0,1,1,.594-2.793,2.018,2.018,0,0,1-.594,2.793" transform="translate(-704.43 -96.107)" fill="#48586f"/>
      <path id="Path_301" data-name="Path 301" d="M760.719,147.86a1.514,1.514,0,1,1,.445-2.094,1.514,1.514,0,0,1-.445,2.094" transform="translate(-665.56 -127.319)" fill="#48586f"/>
      <path id="Path_302" data-name="Path 302" d="M724.294,176.882a1.009,1.009,0,1,1,.3-1.4,1.009,1.009,0,0,1-.3,1.4" transform="translate(-634.277 -153.604)" fill="#48586f"/>
      <path id="Path_303" data-name="Path 303" d="M828.306,158.344a2.019,2.019,0,1,1,1.161-2.608,2.019,2.019,0,0,1-1.161,2.608" transform="translate(-724.52 -135.538)" fill="#48586f"/>
      <path id="Path_304" data-name="Path 304" d="M777.85,182.181a1.514,1.514,0,1,1,.871-1.956,1.514,1.514,0,0,1-.871,1.956" transform="translate(-680.842 -157.314)" fill="#48586f"/>
      <path id="Path_305" data-name="Path 305" d="M737.019,202.323a1.009,1.009,0,1,1,.581-1.3,1.009,1.009,0,0,1-.581,1.3" transform="translate(-645.61 -175.847)" fill="#48586f"/>
      <path id="Path_306" data-name="Path 306" d="M840.951,207.166a2.019,2.019,0,1,1,1.678-2.31,2.019,2.019,0,0,1-1.678,2.31" transform="translate(-735.976 -178.289)" fill="#48586f"/>
      <path id="Path_307" data-name="Path 307" d="M787.475,219.317a1.514,1.514,0,1,1,1.258-1.732,1.514,1.514,0,0,1-1.258,1.732" transform="translate(-689.557 -189.833)" fill="#48586f"/>
      <path id="Path_308" data-name="Path 308" d="M744.179,229.856a1.009,1.009,0,1,1,.839-1.155,1.009,1.009,0,0,1-.839,1.155" transform="translate(-652.073 -199.962)" fill="#48586f"/>
      <path id="Path_309" data-name="Path 309" d="M843.171,257.55a2.019,2.019,0,1,1,2.121-1.91,2.019,2.019,0,0,1-2.121,1.91" transform="translate(-738.294 -222.487)" fill="#48586f"/>
      <path id="Path_310" data-name="Path 310" d="M789.167,257.643a1.514,1.514,0,1,1,1.591-1.433,1.514,1.514,0,0,1-1.591,1.433" transform="translate(-691.32 -223.454)" fill="#48586f"/>
      <path id="Path_311" data-name="Path 311" d="M745.458,258.277a1.009,1.009,0,1,1,1.061-.955,1.009,1.009,0,0,1-1.061.955" transform="translate(-653.38 -224.895)" fill="#48586f"/>
      <path id="Path_312" data-name="Path 312" d="M834.863,307.289a2.019,2.019,0,1,1,2.473-1.427,2.019,2.019,0,0,1-2.473,1.427" transform="translate(-731.368 -266.196)" fill="#48586f"/>
      <path id="Path_313" data-name="Path 313" d="M782.852,295.479a1.514,1.514,0,1,1,1.854-1.071,1.514,1.514,0,0,1-1.854,1.071" transform="translate(-686.051 -256.702)" fill="#48586f"/>
      <path id="Path_314" data-name="Path 314" d="M740.8,286.338a1.009,1.009,0,1,1,1.236-.714,1.009,1.009,0,0,1-1.236.714" transform="translate(-649.473 -249.551)" fill="#48586f"/>
      <path id="Path_315" data-name="Path 315" d="M816.4,354.216a2.019,2.019,0,1,1,2.715-.882,2.019,2.019,0,0,1-2.715.882" transform="translate(-715.508 -307.512)" fill="#48586f"/>
      <path id="Path_316" data-name="Path 316" d="M768.809,331.178a1.514,1.514,0,1,1,2.036-.662,1.514,1.514,0,0,1-2.036.662" transform="translate(-673.987 -288.132)" fill="#48586f"/>
      <path id="Path_317" data-name="Path 317" d="M730.406,312.82a1.009,1.009,0,1,1,1.357-.441,1.009,1.009,0,0,1-1.357.441" transform="translate(-640.526 -272.858)" fill="#48586f"/>
      <path id="Path_318" data-name="Path 318" d="M788.58,396.283a2.019,2.019,0,1,1,2.839-.3,2.019,2.019,0,0,1-2.839.3" transform="translate(-691.407 -344.633)" fill="#48586f"/>
      <path id="Path_319" data-name="Path 319" d="M747.654,363.181a1.514,1.514,0,1,1,2.129-.224,1.514,1.514,0,0,1-2.129.224" transform="translate(-655.654 -316.369)" fill="#48586f"/>
      <path id="Path_320" data-name="Path 320" d="M714.738,336.565a1.009,1.009,0,1,1,1.42-.149,1.009,1.009,0,0,1-1.42.149" transform="translate(-626.931 -293.798)" fill="#48586f"/>
      <path id="Path_321" data-name="Path 321" d="M752.623,431.643a2.019,2.019,0,1,1,2.839.3,2.019,2.019,0,0,1-2.839-.3" transform="translate(-660.112 -375.927)" fill="#48586f"/>
      <path id="Path_322" data-name="Path 322" d="M720.3,390.081a1.514,1.514,0,1,1,2.13.224,1.514,1.514,0,0,1-2.13-.224" transform="translate(-631.848 -340.173)" fill="#48586f"/>
      <path id="Path_323" data-name="Path 323" d="M694.474,356.531a1.009,1.009,0,1,1,1.42.149,1.01,1.01,0,0,1-1.42-.149" transform="translate(-609.278 -311.451)" fill="#48586f"/>
      <path id="Path_324" data-name="Path 324" d="M710.1,458.752a2.019,2.019,0,1,1,2.715.882,2.019,2.019,0,0,1-2.715-.882" transform="translate(-622.993 -400.028)" fill="#48586f"/>
      <path id="Path_325" data-name="Path 325" d="M687.958,410.707a1.514,1.514,0,1,1,2.036.662,1.514,1.514,0,0,1-2.036-.662" transform="translate(-603.612 -358.507)" fill="#48586f"/>
      <path id="Path_326" data-name="Path 326" d="M670.5,371.846a1.009,1.009,0,1,1,1.358.441,1.009,1.009,0,0,1-1.358-.441" transform="translate(-588.339 -325.047)" fill="#48586f"/>
      <path id="Path_327" data-name="Path 327" d="M662.866,476.43a2.019,2.019,0,1,1,2.472,1.427,2.019,2.019,0,0,1-2.472-1.427" transform="translate(-581.675 -415.888)" fill="#48586f"/>
      <path id="Path_328" data-name="Path 328" d="M652.033,424.158a1.514,1.514,0,1,1,1.854,1.071,1.514,1.514,0,0,1-1.854-1.071" transform="translate(-572.183 -370.571)" fill="#48586f"/>
      <path id="Path_329" data-name="Path 329" d="M643.866,381.844a1.009,1.009,0,1,1,1.236.714,1.009,1.009,0,0,1-1.236-.714" transform="translate(-565.031 -333.994)" fill="#48586f"/>
      <path id="Path_330" data-name="Path 330" d="M735.456,41.7a2.019,2.019,0,1,1-.594-2.793,2.019,2.019,0,0,1,.594,2.793" transform="translate(-642.184 -33.862)" fill="#48586f"/>
      <path id="Path_331" data-name="Path 331" d="M707.212,93.462a1.514,1.514,0,1,1-.445-2.094,1.514,1.514,0,0,1,.445,2.094" transform="translate(-618.211 -79.97)" fill="#48586f"/>
      <path id="Path_332" data-name="Path 332" d="M684.581,136.575a1.009,1.009,0,1,1-.3-1.4,1.009,1.009,0,0,1,.3,1.4" transform="translate(-599.164 -118.491)" fill="#48586f"/>
      <path id="Path_333" data-name="Path 333" d="M690.713,18.43a2.019,2.019,0,1,1-1.161-2.608,2.019,2.019,0,0,1,1.161,2.608" transform="translate(-602.749 -13.767)" fill="#48586f"/>
      <path id="Path_334" data-name="Path 334" d="M673.174,75.762a1.514,1.514,0,1,1-.871-1.956,1.514,1.514,0,0,1,.871,1.956" transform="translate(-588.214 -64.684)" fill="#48586f"/>
      <path id="Path_335" data-name="Path 335" d="M659.329,123.471a1.009,1.009,0,1,1-.581-1.3,1.01,1.01,0,0,1,.581,1.3" transform="translate(-576.919 -107.155)" fill="#48586f"/>
      <path id="Path_336" data-name="Path 336" d="M642.114,4.972a2.019,2.019,0,1,1-1.678-2.31,2.019,2.019,0,0,1,1.678,2.31" transform="translate(-560.002 -2.315)" fill="#48586f"/>
      <path id="Path_337" data-name="Path 337" d="M636.2,65.53a1.514,1.514,0,1,1-1.259-1.732A1.514,1.514,0,0,1,636.2,65.53" transform="translate(-555.696 -55.973)" fill="#48586f"/>
      <path id="Path_338" data-name="Path 338" d="M631.907,115.906a1.009,1.009,0,1,1-.839-1.155,1.009,1.009,0,0,1,.839,1.155" transform="translate(-552.805 -100.695)" fill="#48586f"/>
      <path id="Path_339" data-name="Path 339" d="M591.779,1.913A2.019,2.019,0,1,1,589.657,0a2.019,2.019,0,0,1,2.122,1.91" transform="translate(-515.809 0)" fill="#48586f"/>
      <path id="Path_340" data-name="Path 340" d="M597.914,63.208a1.514,1.514,0,1,1-1.591-1.433,1.514,1.514,0,0,1,1.591,1.433" transform="translate(-522.078 -54.212)" fill="#48586f"/>
      <path id="Path_341" data-name="Path 341" d="M603.511,114.207a1.009,1.009,0,1,1-1.061-.955,1.009,1.009,0,0,1,1.061.955" transform="translate(-527.875 -99.389)" fill="#48586f"/>
      <path id="Path_342" data-name="Path 342" d="M541.9,9.382a2.019,2.019,0,1,1-2.472-1.427A2.019,2.019,0,0,1,541.9,9.382" transform="translate(-472.093 -6.92)" fill="#48586f"/>
      <path id="Path_343" data-name="Path 343" d="M559.974,68.893a1.514,1.514,0,1,1-1.854-1.071,1.514,1.514,0,0,1,1.854,1.071" transform="translate(-488.825 -59.476)" fill="#48586f"/>
      <path id="Path_344" data-name="Path 344" d="M575.38,118.447a1.009,1.009,0,1,1-1.236-.714,1.009,1.009,0,0,1,1.236.714" transform="translate(-503.215 -103.293)" fill="#48586f"/>
      <path id="Path_345" data-name="Path 345" d="M494.67,27.06a2.019,2.019,0,1,1-2.715-.882,2.019,2.019,0,0,1,2.715.882" transform="translate(-430.776 -22.781)" fill="#48586f"/>
      <path id="Path_346" data-name="Path 346" d="M524.048,82.345a1.514,1.514,0,1,1-2.036-.662,1.514,1.514,0,0,1,2.036.662" transform="translate(-457.396 -71.541)" fill="#48586f"/>
      <path id="Path_347" data-name="Path 347" d="M548.746,128.445a1.009,1.009,0,1,1-1.358-.441,1.009,1.009,0,0,1,1.358.441" transform="translate(-479.908 -112.24)" fill="#48586f"/>
      <path id="Path_348" data-name="Path 348" d="M452.15,54.175a2.019,2.019,0,1,1-2.839-.3,2.019,2.019,0,0,1,2.839.3" transform="translate(-393.662 -46.888)" fill="#48586f"/>
      <path id="Path_349" data-name="Path 349" d="M491.706,102.975a1.514,1.514,0,1,1-2.129-.224,1.514,1.514,0,0,1,2.129.224" transform="translate(-429.164 -89.879)" fill="#48586f"/>
      <path id="Path_350" data-name="Path 350" d="M524.775,143.763a1.009,1.009,0,1,1-1.42-.149,1.009,1.009,0,0,1,1.42.149" transform="translate(-458.972 -125.839)" fill="#48586f"/>
      <path id="Path_351" data-name="Path 351" d="M416.193,89.535a2.019,2.019,0,1,1-2.839.3,2.019,2.019,0,0,1,2.839-.3" transform="translate(-362.367 -78.181)" fill="#48586f"/>
      <path id="Path_352" data-name="Path 352" d="M464.357,129.875a1.514,1.514,0,1,1-2.129.224,1.514,1.514,0,0,1,2.129-.224" transform="translate(-405.358 -113.683)" fill="#48586f"/>
      <path id="Path_353" data-name="Path 353" d="M504.511,163.729a1.009,1.009,0,1,1-1.42.149,1.009,1.009,0,0,1,1.42-.149" transform="translate(-441.319 -143.492)" fill="#48586f"/>
      <path id="Path_354" data-name="Path 354" d="M388.371,131.6a2.019,2.019,0,1,1-2.715.882,2.019,2.019,0,0,1,2.715-.882" transform="translate(-338.261 -115.296)" fill="#48586f"/>
      <path id="Path_355" data-name="Path 355" d="M443.2,161.872a1.514,1.514,0,1,1-2.036.662,1.514,1.514,0,0,1,2.036-.662" transform="translate(-387.021 -141.915)" fill="#48586f"/>
      <path id="Path_356" data-name="Path 356" d="M488.839,187.47a1.009,1.009,0,1,1-1.358.441,1.009,1.009,0,0,1,1.358-.441" transform="translate(-427.721 -164.428)" fill="#48586f"/>
      <path id="Path_357" data-name="Path 357" d="M369.9,178.523a2.019,2.019,0,1,1-2.472,1.427,2.019,2.019,0,0,1,2.472-1.427" transform="translate(-322.4 -156.612)" fill="#48586f"/>
      <path id="Path_358" data-name="Path 358" d="M429.154,197.571a1.514,1.514,0,1,1-1.854,1.071,1.514,1.514,0,0,1,1.854-1.071" transform="translate(-374.956 -173.345)" fill="#48586f"/>
      <path id="Path_359" data-name="Path 359" d="M478.448,213.952a1.009,1.009,0,1,1-1.236.714,1.009,1.009,0,0,1,1.236-.714" transform="translate(-418.774 -187.735)" fill="#48586f"/>
    </g>
  </g>
</svg>
