<svg xmlns="http://www.w3.org/2000/svg" xmlns:xlink="http://www.w3.org/1999/xlink" width="712.128" height="499.473" viewBox="0 0 712.128 499.473">
  <defs>
    <clipPath id="clip-path">
      <rect id="Rectangle_115" data-name="Rectangle 115" width="712.128" height="499.473" fill="none"/>
    </clipPath>
    <clipPath id="clip-path-3">
      <path id="Path_157" data-name="Path 157" d="M1293.639,818.007s9.545-.6,9.675-1.393c.065-.4-4-3.025-8.043-5.529Z" transform="translate(-1293.639 -811.086)" fill="none"/>
    </clipPath>
    <linearGradient id="linear-gradient" x1="-52.056" y1="21.097" x2="-52.015" y2="21.097" gradientUnits="objectBoundingBox">
      <stop offset="0" stop-color="#ffd5d3"/>
      <stop offset="1" stop-color="#fe96a6"/>
    </linearGradient>
    <clipPath id="clip-path-5">
      <path id="Path_159" data-name="Path 159" d="M1143.021,381.73a63.429,63.429,0,0,1-11.775.352c-8.256-.28-15.754-.559-21.455,6.732-4.045,5.174,3.993,18.031,12.493,17.516l8.243,10.3a56.138,56.138,0,0,1,17.13,12.622c8.5,9.016,15.714-2.962,19.835-11.076s6.956-20.994-2.447-20.994c2.144-9.427-6.768-15.786-17.684-15.785a29.018,29.018,0,0,0-4.34.33" transform="translate(-1108.713 -381.4)" fill="none"/>
    </clipPath>
    <linearGradient id="linear-gradient-2" x1="-4.44" y1="5.087" x2="-4.436" y2="5.087" gradientUnits="objectBoundingBox">
      <stop offset="0" stop-color="#002757"/>
      <stop offset="1" stop-color="#061f3e"/>
    </linearGradient>
    <clipPath id="clip-path-6">
      <path id="Path_160" data-name="Path 160" d="M1194.808,520.086a19.117,19.117,0,0,1,2.266,5.648c.634,2.661.737,4.883,1.6,6.331,1.415,2.379,4.83,5.983,11.719,4.764s9.144-8.954,8.948-10.754c-.1-.97-1.859-5.171-3.4-9.67-1.328-3.875-2.5-7.978-2.326-10.423Z" transform="translate(-1194.808 -505.982)" fill="none"/>
    </clipPath>
    <linearGradient id="linear-gradient-3" x1="-12.146" y1="8.742" x2="-12.135" y2="8.742" xlink:href="#linear-gradient"/>
    <clipPath id="clip-path-7">
      <path id="Path_161" data-name="Path 161" d="M1194.808,520.086a19.117,19.117,0,0,1,2.266,5.648c7.588,1.973,14.911.184,18.862-9.328-1.328-3.875-2.5-7.978-2.326-10.423Z" transform="translate(-1194.808 -505.982)" fill="none"/>
    </clipPath>
    <linearGradient id="linear-gradient-4" x1="-15.125" y1="12.264" x2="-15.112" y2="12.264" xlink:href="#linear-gradient"/>
  </defs>
  <g id="Group_17462" data-name="Group 17462" transform="translate(0)">
    <g id="Group_120" data-name="Group 120" transform="translate(0 0)" clip-path="url(#clip-path)">
      <path id="Path_118" data-name="Path 118" d="M543.071,279.522c.747-16.848-44.446-34.555-59.332-41.781-22.846-11.091-37.426-16.5-23.261-49.3,8.612-19.943,116.66-38.275,136.784-45.594,72.909-26.517-194.755,56.486-97.089-100.291l1.6-2.57c16.835-27.024,32.134-49.86,71.3-35.607C614.086,19.3,666.853,55.642,713.06,90.254,743.954,113.4,785.507,67.41,832.778,69.606c.154-.043,130.853,35.27-6.785,85.037-24.117,25.993-.944,37.395,34.428,76.188,28.26,30.993,80.107,117.412,0,118.622-16.886.255-8.6,20.37-59.248,34.891-98.417,28.219-58.192-1.756-120.813-6.869-38.425-3.137-10.464-4.284-47.2,3.2-109.492,22.316-36.907,58.448-109.52,38.22-17.526-.862-77.464-13.664-74.966-47.2,0-43.366,93.558-73.35,94.392-92.179" transform="translate(-296.68 0.003)" fill="#f8af34" fill-rule="evenodd"/>
    </g>
    <path id="Path_119" data-name="Path 119" d="M1376.365,1042.737l34.958,108.4-8.263,4.645-38.136-107.63Z" transform="translate(-902.683 -689.606)" fill="#2b3b66" fill-rule="evenodd"/>
    <path id="Path_120" data-name="Path 120" d="M1317.562,1054.169l4.449,103.757-12.077,1.549-3.178-103.758Z" transform="translate(-864.214 -697.166)" fill="#2b3b66" fill-rule="evenodd"/>
    <path id="Path_121" data-name="Path 121" d="M1213.483,1047.383l-22.246,102.209-12.076-3.1,25.424-103.757Z" transform="translate(-779.83 -689.606)" fill="#2b3b66" fill-rule="evenodd"/>
    <path id="Path_122" data-name="Path 122" d="M1296.756,1272.152l-79.45-.774-.635,7.743h80.085Z" transform="translate(-804.637 -840.816)" fill="#2b3b66" fill-rule="evenodd"/>
    <g id="Group_122" data-name="Group 122" transform="translate(0 0)" clip-path="url(#clip-path)">
      <path id="Path_123" data-name="Path 123" d="M1278.778,699.773c32.627,1.806,24.576,74.85,23.517,112.275.635,17.035-51.483,16.26-74.365,13.938l37.5-35.618Z" transform="translate(-812.083 -462.789)" fill="#6aacec" fill-rule="evenodd"/>
      <path id="Path_124" data-name="Path 124" d="M75.9,1205.966c-1.82-27.054-12.924-52.777-37.133-41.911-15.836,6.653-16.928,63.864-38.771,54.551,4.187,13.305,20.933,27.941,42.048,2,16.747-23.506,26.394-28.385,33.857-14.636" transform="translate(0 -768.152)" fill="#46556a" fill-rule="evenodd"/>
      <path id="Path_125" data-name="Path 125" d="M82.6,1231.306c-22.24-15.055-29.828,36.114-55.1,34.919,23.39,8.7,33.944-38.377,55.1-34.919" transform="translate(-18.191 -812.479)" fill="#fff" fill-rule="evenodd"/>
      <path id="Path_126" data-name="Path 126" d="M61.274,734.86c25.873-.692,41.407,14.376,51.331,25.945-2.912,17.186,3.185,22.064,6.007,6.653,26.758,45.016,8.191,110.654,0,151.013-.543-21.457,13.9-55.047-20.2-73.843-15.654-6.431-32.4-31.489-20.2-77.169,3.276-14.858-4.369-22.4-16.928-32.6" transform="translate(-40.523 -485.978)" fill="#46556a" fill-rule="evenodd"/>
      <path id="Path_127" data-name="Path 127" d="M162.454,903.726c6.735-61.093-26.667-129.17-42.321-138.373,4.186,9.2,39.227,54.995,42.321,138.373" transform="translate(-79.449 -506.16)" fill="#fff" fill-rule="evenodd"/>
      <path id="Path_128" data-name="Path 128" d="M242.275,1117.648c1.365-19.736,7.1-30.823,22.935-43.574,11.377-9.868,25.484-.776,33.311-30.269,1.729,18.073-1.456,42.8-13.652,51.225-14.744,9.2-32.764,1.774-42.594,22.618" transform="translate(-160.227 -690.312)" fill="#46556a" fill-rule="evenodd"/>
      <path id="Path_129" data-name="Path 129" d="M257.583,1137.334c-.87-15.913,36.595-19.649,47.193-44.643-8.413,26.08-40.746,35.2-47.193,44.643" transform="translate(-170.341 -722.642)" fill="#fff" fill-rule="evenodd"/>
      <path id="Path_130" data-name="Path 130" d="M253.248,1247.236c3.838-9.555,8.48-13.744,18.444-16.37,7.272-2.24,12.88,5.656,21.511-7.249-2.023,9.456-7.569,21.076-15.02,22.4-8.851,1.109-16.684-6.884-24.935,1.218" transform="translate(-167.484 -809.229)" fill="#46556a" fill-rule="evenodd"/>
      <path id="Path_131" data-name="Path 131" d="M266.892,1256.534c2.108-8.171,21.457-1.154,30.757-11.151-8.379,11.058-26.02,7.952-30.757,11.151" transform="translate(-176.507 -823.624)" fill="#fff" fill-rule="evenodd"/>
      <path id="Path_132" data-name="Path 132" d="M207.592,1176.89c1.274-7.872-2.093-14.746-8.464-20.623-.182,7.207,3.185,14.414,8.464,20.623" transform="translate(-131.687 -764.688)" fill="#fff" fill-rule="evenodd"/>
      <path id="Path_133" data-name="Path 133" d="M238.647,1268.155c.364-9.2,4-14.414,12.56-15.633-6.917,5.544-8.1,14.081-12.56,15.633" transform="translate(-157.827 -828.346)" fill="#3b456e" fill-rule="evenodd"/>
      <path id="Path_134" data-name="Path 134" d="M245.545,1300.533c1.653-4.52,4.308-6.264,8.785-4.845-4.348,1.134-6.3,5.126-8.785,4.845" transform="translate(-162.389 -856.574)" fill="#fff" fill-rule="evenodd"/>
      <path id="Path_135" data-name="Path 135" d="M217.859,1316.4l-45.324-2,3.277,41.911,35.5,1.331Z" transform="translate(-114.105 -869.268)" fill="#f8af34" fill-rule="evenodd"/>
      <path id="Path_136" data-name="Path 136" d="M1878.664,1230.451c1.82-27.053,12.924-52.777,37.134-41.911,15.836,6.653,16.928,63.864,38.771,54.551-4.187,13.305-20.933,27.941-42.048,2-16.747-23.506-26.394-28.385-33.857-14.636" transform="translate(-1242.441 -784.345)" fill="#46556a" fill-rule="evenodd"/>
      <path id="Path_137" data-name="Path 137" d="M1912.6,1255.791c22.24-15.055,29.828,36.114,55.1,34.919-23.391,8.7-33.945-38.377-55.1-34.919" transform="translate(-1264.884 -828.672)" fill="#fff" fill-rule="evenodd"/>
      <path id="Path_138" data-name="Path 138" d="M1902.35,759.345c-25.873-.692-41.407,14.376-51.331,25.945,2.912,17.186-3.185,22.064-6.007,6.653-26.758,45.016-8.191,110.654,0,151.013.543-21.457-13.9-55.046,20.2-73.843,15.654-6.431,32.4-31.489,20.205-77.169-3.276-14.858,4.369-22.4,16.929-32.6" transform="translate(-1210.973 -502.171)" fill="#46556a" fill-rule="evenodd"/>
      <path id="Path_139" data-name="Path 139" d="M1855.97,928.21c-6.735-61.093,26.667-129.17,42.321-138.373-4.187,9.2-39.227,54.995-42.321,138.373" transform="translate(-1226.847 -522.352)" fill="#fff" fill-rule="evenodd"/>
      <path id="Path_140" data-name="Path 140" d="M1749.833,1142.133c-1.365-19.736-7.1-30.823-22.935-43.574-11.377-9.868-25.484-.776-33.311-30.269-1.729,18.073,1.456,42.8,13.652,51.225,14.744,9.2,32.764,1.774,42.594,22.619" transform="translate(-1119.753 -706.505)" fill="#46556a" fill-rule="evenodd"/>
      <path id="Path_141" data-name="Path 141" d="M1753.026,1161.82c.869-15.914-36.6-19.648-47.193-44.644,8.414,26.08,40.746,35.2,47.193,44.644" transform="translate(-1128.141 -738.835)" fill="#fff" fill-rule="evenodd"/>
      <path id="Path_142" data-name="Path 142" d="M1771.525,1271.721c-3.838-9.554-8.48-13.745-18.444-16.37-7.272-2.24-12.879,5.656-21.511-7.249,2.023,9.456,7.569,21.076,15.02,22.4,8.851,1.109,16.684-6.884,24.935,1.218" transform="translate(-1145.162 -825.422)" fill="#46556a" fill-rule="evenodd"/>
      <path id="Path_143" data-name="Path 143" d="M1775.844,1281.019c-2.108-8.171-21.457-1.155-30.757-11.151,8.379,11.058,26.02,7.952,30.757,11.151" transform="translate(-1154.101 -839.817)" fill="#fff" fill-rule="evenodd"/>
      <path id="Path_144" data-name="Path 144" d="M1878.143,1201.374c-1.274-7.872,2.093-14.746,8.464-20.623.182,7.207-3.185,14.414-8.464,20.623" transform="translate(-1241.92 -780.88)" fill="#fff" fill-rule="evenodd"/>
      <path id="Path_145" data-name="Path 145" d="M1839.625,1292.639c-.364-9.2-4-14.414-12.56-15.633,6.917,5.544,8.1,14.081,12.56,15.633" transform="translate(-1208.317 -844.538)" fill="#3b456e" fill-rule="evenodd"/>
      <path id="Path_146" data-name="Path 146" d="M1840.1,1325.017c-1.653-4.52-4.308-6.265-8.785-4.846,4.348,1.134,6.3,5.126,8.785,4.846" transform="translate(-1211.125 -872.766)" fill="#fff" fill-rule="evenodd"/>
      <path id="Path_147" data-name="Path 147" d="M1796.428,1340.88l45.324-2-3.277,41.911-35.495,1.331Z" transform="translate(-1188.055 -885.461)" fill="#f8af34" fill-rule="evenodd"/>
      <path id="Path_148" data-name="Path 148" d="M1217.409,658.533c0,1.16-.006,2.32-.011,3.474-.038,14.645-.233,28.2-.233,28.2l-31.426-5.637s-.607-12.44-.694-22.559c-.01-1.2-.01-2.363-.005-3.474.021-4.65.211-8.3.7-9.138a2.52,2.52,0,0,0,.2-.716c.13-.721.26-1.913.385-3.48.19-2.466.368-5.865.531-9.849q.074-1.675.141-3.48c.114-3.078.222-6.406.32-9.854.033-1.149.065-2.309.1-3.474.092-3.258.173-6.575.249-9.854.028-1.165.055-2.33.081-3.48.076-3.415.141-6.743.206-9.854q.032-1.789.065-3.474c.179-9.192.293-15.795.33-15.952.13-.515,6.694-10.434,6.694-10.434l15.589-3.8,6.537,7.507s-.114,10.071-.189,22.678q-.008,1.707-.016,3.474c-.017,3.209-.028,6.531-.033,9.854-.005,1.16-.005,2.325-.005,3.48,0,3.361.005,6.689.016,9.854.005,1.181.011,2.341.022,3.474.027,3.648.065,7,.129,9.854.022,1.106.049,2.136.076,3.079.005.13.011.266.011.4.087,2.862.146,6.222.179,9.849q.016,1.707.027,3.48c.021,3.193.027,6.526.027,9.854" transform="translate(-783.716 -371.473)" fill="#fff"/>
      <path id="Path_149" data-name="Path 149" d="M1293.646,689.213c-1.03,3.6-33.746,5.149-35.99,2.119-1.019-1.377-3.149-16.954-4.244-38.348-1.317-25.67-1.138-59.714,4.233-87.671l17.2,7.469,5.512,8.244,10.716,13.133s-.456,23.54-.937,39.15c-.033.964-.06,1.9-.092,2.791-.515,15.41,4.634,49.508,3.6,53.113" transform="translate(-828.483 -373.865)" fill="#45459b"/>
      <path id="Path_150" data-name="Path 150" d="M1294.981,745.3c-1.03,3.6-33.746,5.149-35.99,2.119-1.019-1.377-3.149-16.954-4.244-38.348,4.846-1.956,11.821-7.393,13.171-22.542,2.108-23.676,12.575-36.407,12.575-36.407a70.733,70.733,0,0,1,0,33.421l10.976,5.854c-.032.964-.06,1.9-.092,2.791-.515,15.41,4.634,49.508,3.6,53.113" transform="translate(-829.818 -429.953)" fill="#3c3c91"/>
      <path id="Path_151" data-name="Path 151" d="M1065.624,746.516c-6.985,13.079-13.891,25.841-17.768,26.559l-16.867-1.737-3.752-3.638,9.46-5.281,6.169-30.154,12.976,1.991Z" transform="translate(-679.356 -484.277)" fill="#edb2b2"/>
      <path id="Path_152" data-name="Path 152" d="M995.615,817.245c-.2.144-10.888,6.213-17.078,11.1-6.864,2.884-12.624,8.269-12.31,11.679,2.656,2.105,5.05-6.009,8.727-5.728,2.578.2-6.2,10.622-2.949,11.6,2.934.881,5.564-9.967,8.042-8.866,1.516.674-4.292,10.929-2.957,11.584,3.87,1.9,6.086-8.713,8.123-8.208,3.211.795-2.736,7.661-1.223,9.21,2.065,1.175,4.351-3.79,6.761-8.6,2.162-4.312,1.052,5.951,4.107,4.826,2.78-1.024,2.372-7.539,2.045-9.943-1.365-7.664,6.554-4.38,12.032-8.984,3.632-2.594-3.267-16.961-13.319-9.677" transform="translate(-638.999 -539.129)" fill="#edb2b2" fill-rule="evenodd"/>
      <path id="Path_153" data-name="Path 153" d="M1111.5,696.36s-28.591.716-28.077-.574,5.665-11.589,8.461-20.749,3.9-44.164,3.9-44.164l-2.651,10.255s-.027-.005-.087-.021c-.547-.141-3.6-.932-7.377-1.93-7.041-1.87-16.558-4.472-16.8-4.954-.39-.775,3.214-16.743,6.564-27.822s9.534-25.757,42-33.486c-6.168,21.377-5.935,123.445-5.935,123.445" transform="translate(-706.873 -378.892)" fill="#45459b"/>
      <path id="Path_154" data-name="Path 154" d="M1323.919,763.288s-15.36,39.185-24.673,40.255c-5.2.6-8.6-14.7-6.672-20.888l1.631-6.921,4.271-18.1Z" transform="translate(-854.473 -501.052)" fill="#f7c9c7"/>
      <path id="Path_155" data-name="Path 155" d="M1188.091,822.089c8.005,1.606,12.284,5.961,12.142,13.755-.554,6.2-4.611,10.438-8.907,10.375-8.992,2.44-17.985-12.112-24.14-8.793-4.577,3.5-6.35,12.045-10.223,14.309-4.086-.441,3.206-7.409.373-9.949-1.986-1.78-7.358,11.648-10.644,9.936-2.965-1.545,6.854-11.457,3.968-12.5-1.765-.638-8.761,11.212-10.382,10.695-4.7-1.5,5.15-10.927,3.207-12.079-3.062-1.815-6.33,7.656-9.031,7.661-2.681-.681,1.067-6.025,4.561-11.346,3.134-4.774-7.307-.739-7.429-3.946-.136-3.6,13.542-4.934,19.9-5.228,9.156-4.6,18.514-2.842,36.6-2.89" transform="translate(-748.366 -543.491)" fill="#f7c9c7" fill-rule="evenodd"/>
      <path id="Path_156" data-name="Path 156" d="M1260.6,561.694s21.251-.193,36.9,11.205,16.781,27.883,5.637,60.811c-5.784-1.216-25.463-4.115-25.447-5.661s7.464-38.149,7.464-38.149Z" transform="translate(-833.689 -371.471)" fill="#45459b"/>
    </g>
    <g id="Group_124" data-name="Group 124" transform="translate(438.1 274.681)" clip-path="url(#clip-path-3)">
      <rect id="Rectangle_117" data-name="Rectangle 117" width="8.429" height="10.746" transform="matrix(0.164, -0.986, 0.986, 0.164, -1.122, 6.734)" fill="url(#linear-gradient)"/>
    </g>
    <g id="Group_126" data-name="Group 126" transform="translate(0 0)" clip-path="url(#clip-path)">
      <path id="Path_158" data-name="Path 158" d="M1130.139,644.409s-.965,10.629-1.479,33.746l-2.737,10.233c-.547-.141-3.6-.932-7.377-1.929,3-4.927,6.087-11.7,6.38-19.058.58-14.683,5.214-22.992,5.214-22.992" transform="translate(-739.742 -426.174)" fill="#34318b"/>
    </g>
    <g id="Group_128" data-name="Group 128" transform="translate(375.473 129.165)" clip-path="url(#clip-path-5)">
      <rect id="Rectangle_119" data-name="Rectangle 119" width="82.366" height="74.529" transform="translate(-18.921 4.897) rotate(-17.064)" fill="url(#linear-gradient-2)"/>
    </g>
    <g id="Group_130" data-name="Group 130" transform="translate(404.63 171.355)" clip-path="url(#clip-path-6)">
      <rect id="Rectangle_120" data-name="Rectangle 120" width="32.976" height="37.866" transform="matrix(0.957, -0.29, 0.29, 0.957, -8.913, 2.706)" fill="url(#linear-gradient-3)"/>
    </g>
    <g id="Group_132" data-name="Group 132" transform="translate(404.63 171.355)" clip-path="url(#clip-path-7)">
      <rect id="Rectangle_121" data-name="Rectangle 121" width="26.573" height="26.968" transform="translate(-6.094 1.871) rotate(-17.065)" fill="url(#linear-gradient-4)"/>
    </g>
    <g id="Group_134" data-name="Group 134" transform="translate(0 0)" clip-path="url(#clip-path)">
      <path id="Path_162" data-name="Path 162" d="M1144.463,442.179c23.57,3.767,32.65,0,32.65,0s2.367,13.186,4.009,13.765.531-6.907,4.2-7.824,6.182,5.506,3.719,9.225-5.893,2.415-5.893,2.415.007,23.625-23.6,25.339c-12.573.913-16.7-17.1-15.278-29.01.631-5.279-.193-10.626.193-13.91" transform="translate(-756.577 -292.431)" fill="#edc0c0"/>
      <path id="Path_163" data-name="Path 163" d="M1130.664,913.9c11.98,35.879-17.969,54.426-47.171,52.906l-2.246,103.074h-26.956l-1.5-103.987-14.227.913-5.24,103.987-25.458.912c.5-52.6-1.623-130.288,20.216-148.684a61.878,61.878,0,0,1,22.539-12.418Z" transform="translate(-666.546 -602.22)" fill="#8c9ed9" fill-rule="evenodd"/>
      <path id="Path_164" data-name="Path 164" d="M1029.2,1380.116l1.5,29.918-22.276-.455,4.306-28.62Z" transform="translate(-666.911 -912.729)" fill="#f7c9c7" fill-rule="evenodd"/>
      <path id="Path_165" data-name="Path 165" d="M983.045,1436.048c-3.057-3.953-5.553-12.922-9.172-11.858-6.177,1.6-19.182,13.914-16.285,17.1l39.865-.251a1.536,1.536,0,0,0,.125-3.067Z" transform="translate(-633.019 -941.819)" fill="#8a4078" fill-rule="evenodd"/>
      <path id="Path_166" data-name="Path 166" d="M1170.335,1376.479l-1.5,30.7H1149.37l1.874-30.285Z" transform="translate(-760.127 -910.323)" fill="#f7c9c7" fill-rule="evenodd"/>
      <path id="Path_167" data-name="Path 167" d="M1116.785,1432.679c-3.057-3.952-5.553-12.922-9.172-11.858-6.177,1.6-20.312,13.161-16.285,17.1h40.994c1.883-.059,1.506-3.131,0-3.192Z" transform="translate(-721.272 -939.591)" fill="#8a4078" fill-rule="evenodd"/>
      <path id="Path_168" data-name="Path 168" d="M1217.811,918.353c11.98,35.879-17.969,54.426-47.171,52.906l-2.246,103.074h-26.956l-1.5-103.987c-2.1-27.247,7.038-48.566,19.543-53.01Z" transform="translate(-753.693 -606.673)" fill="#b5c2e8" fill-rule="evenodd"/>
      <rect id="Rectangle_122" data-name="Rectangle 122" width="471.25" height="13.788" transform="translate(115.158 308.131)" fill="#e0b052"/>
      <path id="Path_169" data-name="Path 169" d="M409.139,950.571h7.9l-28.752,177.407h-7.9Z" transform="translate(-251.566 -628.653)" fill="#f5cf8a" fill-rule="evenodd"/>
      <path id="Path_170" data-name="Path 170" d="M517.354,950.571h7.9L496.5,1127.979h-7.9Z" transform="translate(-323.134 -628.653)" fill="#f5cf8a" fill-rule="evenodd"/>
      <path id="Path_171" data-name="Path 171" d="M1578.644,950.571h-7.9l28.752,177.407h7.9Z" transform="translate(-1038.802 -628.653)" fill="#f5cf8a" fill-rule="evenodd"/>
      <path id="Path_172" data-name="Path 172" d="M1470.429,950.571h-7.9l28.752,177.407h7.9Z" transform="translate(-967.236 -628.653)" fill="#f5cf8a" fill-rule="evenodd"/>
      <path id="Path_173" data-name="Path 173" d="M1427.878,825.37h21.312v2.939c12.616,1.47,10.9,18,.367,19.842v6.981h-21.863Zm21.679,7.349.184,11.758c2.449-.184,4.531-2.756,4.593-5.512.061-3.184-1.715-6.736-4.777-6.246" transform="translate(-944.195 -545.852)" fill="#282726" fill-rule="evenodd"/>
      <path id="Path_174" data-name="Path 174" d="M481.093,856.111H438.642v18.358h42.451c5.359,0,9.743-4.131,9.743-9.179s-4.384-9.179-9.743-9.179" transform="translate(-290.093 -566.182)" fill="#8a4078" fill-rule="evenodd"/>
      <path id="Path_175" data-name="Path 175" d="M456.6,861.816H438.642v14.815H456.6a7.421,7.421,0,1,0,0-14.815" transform="translate(-290.093 -569.955)" fill="#d6d9de" fill-rule="evenodd"/>
      <path id="Path_176" data-name="Path 176" d="M484.513,824.728H446.1v10.628h38.415a5.5,5.5,0,0,0,5.641-5.313h0a5.5,5.5,0,0,0-5.641-5.313" transform="translate(-295.024 -545.427)" fill="#919ed9" fill-rule="evenodd"/>
      <path id="Path_177" data-name="Path 177" d="M460.626,828.533H446.1v8.051h14.528a4.167,4.167,0,0,0,4.273-4.025h0a4.167,4.167,0,0,0-4.273-4.025" transform="translate(-295.024 -547.943)" fill="#d6d9de" fill-rule="evenodd"/>
      <path id="Path_178" data-name="Path 178" d="M467.932,788.593H427.456v12.561h40.476a6.5,6.5,0,0,0,6.666-6.28h0a6.5,6.5,0,0,0-6.666-6.28" transform="translate(-282.695 -521.529)" fill="#fa7357" fill-rule="evenodd"/>
      <path id="Path_179" data-name="Path 179" d="M444.606,792.4h-17.15v9.984h17.15a5.168,5.168,0,0,0,5.3-4.992h0a5.168,5.168,0,0,0-5.3-4.992" transform="translate(-282.695 -524.045)" fill="#d6d9de" fill-rule="evenodd"/>
      <rect id="Rectangle_123" data-name="Rectangle 123" width="101.769" height="6.33" transform="translate(331.769 302.376)" fill="#ccc"/>
      <path id="Path_180" data-name="Path 180" d="M732.072,641.79l53.138,1.682,2.07-109.293-134.57.84-.69,104.249,41.406.841.517,21.018h55.381V653.56l-17.942-.84Z" transform="translate(-431.209 -353.274)" fill="#ccc" fill-rule="evenodd"/>
      <path id="Path_181" data-name="Path 181" d="M806.7,763.872l-5-40.144-26.914-3.363L764.6,762.4h5.349l7.591-35.309,22.084,1.68,2.76,35.31Z" transform="translate(-505.666 -476.407)" fill="#b2b2b2" fill-rule="evenodd"/>
      <rect id="Rectangle_124" data-name="Rectangle 124" width="14.492" height="6.725" transform="translate(331.227 273.383)" fill="#b2b2b2"/>
      <rect id="Rectangle_125" data-name="Rectangle 125" width="111.107" height="4.203" transform="translate(228.402 188.471)" fill="#b2b2b2"/>
    </g>
  </g>
</svg>
