<svg xmlns="http://www.w3.org/2000/svg" xmlns:xlink="http://www.w3.org/1999/xlink" width="222.821" height="113.104" viewBox="0 0 222.821 113.104">
  <defs>
    <clipPath id="clip-path">
      <rect id="Rectangle_57" data-name="Rectangle 57" width="222.821" height="113.104" fill="none"/>
    </clipPath>
  </defs>
  <g id="Group_78" data-name="Group 78" transform="translate(0 0)">
    <rect id="Rectangle_51" data-name="Rectangle 51" width="11.597" height="11.594" transform="translate(196.122 66.949)" fill="#fbb030"/>
    <g id="Group_77" data-name="Group 77" transform="translate(0 0)">
      <g id="Group_76" data-name="Group 76" clip-path="url(#clip-path)">
        <path id="Path_30" data-name="Path 30" d="M118.832,26.607a20.877,20.877,0,0,0-41.754,0H88.666a9.289,9.289,0,0,1,18.578,0v9.308H52.7V47.5h64.2a1.941,1.941,0,0,0,1.95-1.944V26.607Z" transform="translate(103.972 11.308)" fill="#fff"/>
        <rect id="Rectangle_52" data-name="Rectangle 52" width="11.597" height="11.6" transform="translate(135.781 26.337)" fill="#fff"/>
        <path id="Path_31" data-name="Path 31" d="M20.894,7.679V51.006h-.021A20.9,20.9,0,0,1,0,71.882V60.3a9.3,9.3,0,0,0,9.284-9.293V7.679a1.951,1.951,0,0,1,1.95-1.947h7.709a1.949,1.949,0,0,1,1.95,1.947" transform="translate(0 11.309)" fill="#fff"/>
        <path id="Path_32" data-name="Path 32" d="M36.977,1.947v79.3a1.952,1.952,0,0,1-1.95,1.944H27.318a1.949,1.949,0,0,1-1.947-1.944V1.947A1.942,1.942,0,0,1,27.318,0h7.709a1.949,1.949,0,0,1,1.95,1.947" transform="translate(50.054 0.001)" fill="#fff"/>
        <path id="Path_33" data-name="Path 33" d="M57.279,1.947v79.3a1.952,1.952,0,0,1-1.95,1.944H47.617a1.953,1.953,0,0,1-1.947-1.944V1.947A1.944,1.944,0,0,1,47.617,0h7.712a1.945,1.945,0,0,1,1.95,1.947" transform="translate(90.102 0.001)" fill="#fff"/>
        <path id="Path_34" data-name="Path 34" d="M78.017,35.913V47.5H68.732A20.871,20.871,0,0,1,53.654,41.08,20.925,20.925,0,0,1,38.56,47.5H29.273V35.913H38.56a9.286,9.286,0,0,0,9.293-9.287V7.679A1.948,1.948,0,0,1,49.8,5.732h7.691a1.94,1.94,0,0,1,1.953,1.947V26.626a9.283,9.283,0,0,0,9.287,9.287Z" transform="translate(57.753 11.309)" fill="#fff"/>
        <rect id="Rectangle_53" data-name="Rectangle 53" width="66.138" height="11.591" transform="translate(20.894 47.221)" fill="#fff"/>
        <rect id="Rectangle_54" data-name="Rectangle 54" width="63.04" height="11.591" transform="translate(135.769 47.221)" fill="#fff"/>
        <path id="Path_35" data-name="Path 35" d="M64.519,1.238a55.032,55.032,0,0,1-5.434,17.293A56.957,56.957,0,0,1,31.806,44.779a55.573,55.573,0,0,1-15.411,4.5,54.806,54.806,0,0,1-8.113.589V44.779a51.755,51.755,0,0,0,50.8-41.846c.119-.568.214-1.133.312-1.695Z" transform="translate(16.338 2.443)" fill="#fff"/>
        <path id="Path_36" data-name="Path 36" d="M104.028,44.777v5.09A56.478,56.478,0,0,1,80.5,44.777a56.907,56.907,0,0,1-27.36-26.364A55.451,55.451,0,0,1,47.766,1.239H52.93c.056.4.134.835.211,1.24a51.739,51.739,0,0,0,50.887,42.3" transform="translate(94.237 2.445)" fill="#fff"/>
        <path id="Path_37" data-name="Path 37" d="M53.34.056V4.4a5.622,5.622,0,0,1-1.611,4.106A5.416,5.416,0,0,1,47.7,10.164a5.337,5.337,0,0,1-3.9-1.635,5.03,5.03,0,0,1-3.877,1.635,5.4,5.4,0,0,1-4.049-1.635A5.662,5.662,0,0,1,34.26,4.4V0h3.466V4.4a2.434,2.434,0,0,0,.583,1.695,2.177,2.177,0,0,0,1.617.624,2.091,2.091,0,0,0,1.617-.663A2.283,2.283,0,0,0,42.186,4.4V0h3.389V4.4a2.4,2.4,0,0,0,.565,1.695,2,2,0,0,0,1.561.624,2.238,2.238,0,0,0,1.671-.624A2.408,2.408,0,0,0,49.957,4.4V.056Z" transform="translate(67.591 0.001)" fill="#fbb030"/>
        <rect id="Rectangle_55" data-name="Rectangle 55" width="13.571" height="11.591" transform="translate(19.169 47.221)" fill="#fff"/>
        <rect id="Rectangle_56" data-name="Rectangle 56" width="13.571" height="11.591" transform="translate(198.806 47.221)" fill="#fff"/>
        <path id="Path_38" data-name="Path 38" d="M20.618,33.807v.1c.333-.021.529.054.606.169a1.429,1.429,0,0,1,.116.708v8.675a5.028,5.028,0,0,1-.193,1.6,1.6,1.6,0,0,1-.553.8,1.46,1.46,0,0,1-.951.291,1.8,1.8,0,0,1-.52-.059v.116a.986.986,0,0,0,.131.042c.039.018.134.039.276.08l.386.051a1.973,1.973,0,0,0,.354.024,1.952,1.952,0,0,0,1.478-.6,2.44,2.44,0,0,0,.526-.91,3.353,3.353,0,0,0,.119-.841c.036-.416.036-.844.036-1.29V34.74a1.217,1.217,0,0,1,.119-.645c.077-.137.288-.19.6-.19v-.1Z" transform="translate(37.728 66.699)" fill="#fff"/>
        <path id="Path_39" data-name="Path 39" d="M33.378,43a1.88,1.88,0,0,1-.372-.645l-.056-.134a.284.284,0,0,1-.042-.122l-3.365-8.345h-.158L25.958,42.4a2.166,2.166,0,0,1-.351.645.655.655,0,0,1-.544.211v.083h1.4v-.083c-.211,0-.309-.068-.309-.211a.54.54,0,0,1,.077-.294,1.289,1.289,0,0,1,.056-.175l1.439-3.582h2.747l1.368,3.368c.018,0,.018.018.039.059s.018.08.036.08a1.367,1.367,0,0,1,.134.529.335.335,0,0,1-.054.158.365.365,0,0,1-.235.068v.083h2.2v-.083a.668.668,0,0,1-.58-.25M27.807,38.73l1.287-3.208,1.266,3.208Z" transform="translate(49.447 66.598)" fill="#fff"/>
        <path id="Path_40" data-name="Path 40" d="M37.8,39.179a2.879,2.879,0,0,0-1.052-.85,9.81,9.81,0,0,0-1.263-.505c-.172-.048-.407-.143-.719-.256a2.9,2.9,0,0,1-.743-.351,1.635,1.635,0,0,1-.464-.505,1.569,1.569,0,0,1-.178-.758,1.883,1.883,0,0,1,.238-.913,1.9,1.9,0,0,1,.716-.708,2.4,2.4,0,0,1,1.151-.271,2.77,2.77,0,0,1,.936.161,2.1,2.1,0,0,1,.681.407,4.4,4.4,0,0,1,.488.482c.059.062.1.1.1.1h.077l-.449-1.183a.077.077,0,0,1-.042-.018h-.056a6.621,6.621,0,0,0-1.6-.253,2.919,2.919,0,0,0-1.46.369,2.421,2.421,0,0,0-.936.928,2.652,2.652,0,0,0-.33,1.29,2.573,2.573,0,0,0,.214,1.014,2.864,2.864,0,0,0,.565.794,1.918,1.918,0,0,0,.586.41,8.6,8.6,0,0,0,1.148.455,8.686,8.686,0,0,1,1.246.5,2.28,2.28,0,0,1,.779.609,1.5,1.5,0,0,1,.312.972,1.914,1.914,0,0,1-.08.562,1.571,1.571,0,0,1-.366.645,1.9,1.9,0,0,1-.761.529,3.316,3.316,0,0,1-1.246.211A4.248,4.248,0,0,1,34,42.865a1.846,1.846,0,0,1-.8-.491,2.021,2.021,0,0,1-.392-.752,7.851,7.851,0,0,1-.113-1.011h-.1v2.723h2.533c.158,0,.428-.024.838-.062a3.864,3.864,0,0,0,.856-.187,2.635,2.635,0,0,0,1.029-.963,2.508,2.508,0,0,0,.416-1.457,2.3,2.3,0,0,0-.473-1.486" transform="translate(64.318 66.598)" fill="#fff"/>
        <path id="Path_41" data-name="Path 41" d="M44.333,39.179a2.886,2.886,0,0,0-1.046-.85,10.262,10.262,0,0,0-1.269-.505c-.175-.048-.407-.143-.719-.256a2.874,2.874,0,0,1-.74-.351,1.576,1.576,0,0,1-.467-.505,1.537,1.537,0,0,1-.178-.758,1.884,1.884,0,0,1,.238-.913,1.934,1.934,0,0,1,.719-.708,2.38,2.38,0,0,1,1.148-.271,2.739,2.739,0,0,1,.933.161,2.319,2.319,0,0,1,.684.407,4.123,4.123,0,0,1,.485.482l.1.1h.08l-.449-1.183a.077.077,0,0,1-.042-.018H43.75a6.621,6.621,0,0,0-1.6-.253,2.951,2.951,0,0,0-1.466.369,2.4,2.4,0,0,0-.931.928,2.47,2.47,0,0,0-.33,1.29,2.572,2.572,0,0,0,.214,1.014,2.746,2.746,0,0,0,.565.794,1.98,1.98,0,0,0,.583.41,8.685,8.685,0,0,0,1.151.455,8.41,8.41,0,0,1,1.246.5,2.241,2.241,0,0,1,.776.609,1.479,1.479,0,0,1,.312.972,2,2,0,0,1-.074.562,1.58,1.58,0,0,1-.369.645,1.859,1.859,0,0,1-.761.529,3.343,3.343,0,0,1-1.249.211,4.248,4.248,0,0,1-1.287-.175,1.9,1.9,0,0,1-.8-.491,2.054,2.054,0,0,1-.386-.752,5.072,5.072,0,0,1-.119-1.011h-.1v2.723h2.509c.178,0,.455-.024.862-.062a3.943,3.943,0,0,0,.859-.187,2.747,2.747,0,0,0,1.032-.963,2.57,2.57,0,0,0,.407-1.457,2.316,2.316,0,0,0-.47-1.486" transform="translate(77.205 66.598)" fill="#fff"/>
        <path id="Path_42" data-name="Path 42" d="M52.077,41.95a1.356,1.356,0,0,1-.214.672.609.609,0,0,1-.446.253,4.9,4.9,0,0,1-.954.048H48.789a3.818,3.818,0,0,1-.8-.059.628.628,0,0,1-.389-.369,2.849,2.849,0,0,1-.122-.951V38.617h2.961a.937.937,0,0,1,.413.054c.1.024.155.122.175.259h.1v-.883h-.1a.236.236,0,0,1-.175.256,1.359,1.359,0,0,1-.485.059h-2.89V34.122H50.6a2.828,2.828,0,0,1,.511.033.459.459,0,0,1,.229.238,3.979,3.979,0,0,1,.217.716h.092v-1.3H45.73v.1c.291,0,.491.054.547.19a1.6,1.6,0,0,1,.116.764V42.47c0,.291-.059.47-.158.541a.917.917,0,0,1-.505.137v.086h6.442V41.95Z" transform="translate(90.22 66.699)" fill="#fff"/>
        <path id="Path_43" data-name="Path 43" d="M62.292,42.572a2.319,2.319,0,0,0-.229.134c-.08.033-.158.071-.22.1a1.422,1.422,0,0,1-.642.137,1.828,1.828,0,0,1-.913-.232,3.647,3.647,0,0,1-.642-.529,18.242,18.242,0,0,1-1.2-1.561c-.431-.621-.708-.99-.782-1.142l-.059-.1-.663-1.017a3.947,3.947,0,0,0,.821-.615,3.113,3.113,0,0,0,.6-.859,2.172,2.172,0,0,0,.235-.987,2.143,2.143,0,0,0-.369-1.258,1.879,1.879,0,0,0-.993-.657,3.711,3.711,0,0,0-.746-.164c-.271-.009-.681-.009-1.261-.009H52.535v.1a1.221,1.221,0,0,1,.41.054.3.3,0,0,1,.2.211,1.51,1.51,0,0,1,.077.571v7.51a1.474,1.474,0,0,1-.116.731c-.074.1-.271.149-.568.166v.083h2.438v-.083c-.178-.018-.312-.039-.389-.054a.42.42,0,0,1-.214-.235,1.783,1.783,0,0,1-.059-.526V38.71h1.249l.348-.018.954,1.457a.169.169,0,0,1,.021.083c.565.853,1.109,1.573,1.593,2.182a3.235,3.235,0,0,0,.624.568,2.412,2.412,0,0,0,.642.262,1.934,1.934,0,0,0,.589.086,4.584,4.584,0,0,0,.719-.062,2.4,2.4,0,0,0,1.284-.562ZM56.626,38.2A1.687,1.687,0,0,1,56,38.4a3.248,3.248,0,0,1-.7.083H54.31V34.055h.782a3.518,3.518,0,0,1,1.07.134A1.887,1.887,0,0,1,57.271,35.2a1.784,1.784,0,0,1,.232.648,2.513,2.513,0,0,1,.08.624,1.962,1.962,0,0,1-.274,1.088,1.683,1.683,0,0,1-.684.642" transform="translate(103.646 66.7)" fill="#fff"/>
        <path id="Path_44" data-name="Path 44" d="M45.573,5.732H37.059a1.537,1.537,0,0,0-1.537,1.537V26.628H47.113V7.269a1.542,1.542,0,0,0-1.54-1.537" transform="translate(70.081 11.309)" fill="#fff"/>
      </g>
    </g>
  </g>
</svg>
