<svg xmlns="http://www.w3.org/2000/svg" xmlns:xlink="http://www.w3.org/1999/xlink" width="320.195" height="162.531" viewBox="0 0 320.195 162.531">
  <defs>
    <clipPath id="clip-path">
      <rect id="Rectangle_245" data-name="Rectangle 245" width="320.195" height="162.531" fill="none"/>
    </clipPath>
  </defs>
  <g id="Group_276" data-name="Group 276" transform="translate(0 0)">
    <rect id="Rectangle_244" data-name="Rectangle 244" width="16.665" height="16.661" transform="translate(281.828 96.207)" fill="#fbb030"/>
    <g id="Group_275" data-name="Group 275" transform="translate(0 0)">
      <g id="Group_274" data-name="Group 274" clip-path="url(#clip-path)">
        <path id="Path_369" data-name="Path 369" d="M61.678.081V6.323a8.078,8.078,0,0,1-2.315,5.9,7.783,7.783,0,0,1-5.789,2.384,7.669,7.669,0,0,1-5.6-2.35,7.228,7.228,0,0,1-5.571,2.35,7.78,7.78,0,0,1-5.823-2.35,8.151,8.151,0,0,1-2.32-5.934V0h4.977V6.323a3.5,3.5,0,0,0,.842,2.435,3.128,3.128,0,0,0,2.324.9A3,3,0,0,0,44.727,8.7a3.281,3.281,0,0,0,.923-2.38V0h4.87V6.323a3.445,3.445,0,0,0,.812,2.435,2.873,2.873,0,0,0,2.243.9,3.216,3.216,0,0,0,2.4-.9,3.48,3.48,0,0,0,.842-2.435V.081Z" transform="translate(112.101 0.001)" fill="#fbb030"/>
        <path id="Path_370" data-name="Path 370" d="M21.271,33.807v.141c.478-.03.76.077.872.244a2.053,2.053,0,0,1,.167,1.017V47.674a7.225,7.225,0,0,1-.278,2.3,2.292,2.292,0,0,1-.795,1.149,2.1,2.1,0,0,1-1.367.419,2.586,2.586,0,0,1-.748-.085v.167a1.415,1.415,0,0,0,.188.06c.056.026.192.056.4.115l.555.073a2.835,2.835,0,0,0,.508.034,2.8,2.8,0,0,0,2.123-.863,3.507,3.507,0,0,0,.756-1.307,4.818,4.818,0,0,0,.171-1.209c.051-.6.051-1.213.051-1.854V35.148a1.748,1.748,0,0,1,.171-.927c.111-.2.414-.273.867-.273v-.141Z" transform="translate(62.568 110.62)" fill="#46556a"/>
        <path id="Path_371" data-name="Path 371" d="M37.012,47.042a2.7,2.7,0,0,1-.534-.927l-.081-.192a.408.408,0,0,1-.06-.175L31.5,33.756h-.226L26.349,46.171a3.113,3.113,0,0,1-.5.927.941.941,0,0,1-.782.3v.12h2.012V47.4c-.3,0-.444-.1-.444-.3a.776.776,0,0,1,.111-.423,1.853,1.853,0,0,1,.081-.252l2.068-5.148h3.947l1.965,4.84c.026,0,.026.026.056.085s.026.115.051.115a1.964,1.964,0,0,1,.192.76.482.482,0,0,1-.077.226.525.525,0,0,1-.337.1v.12h3.157V47.4a.959.959,0,0,1-.833-.359M29.006,40.9l1.85-4.61,1.82,4.61Z" transform="translate(82.008 110.453)" fill="#46556a"/>
        <path id="Path_372" data-name="Path 372" d="M40.073,41.548a4.137,4.137,0,0,0-1.512-1.222,14.1,14.1,0,0,0-1.816-.726c-.248-.068-.585-.205-1.034-.367a4.166,4.166,0,0,1-1.068-.5A2.35,2.35,0,0,1,33.977,38a2.255,2.255,0,0,1-.256-1.089,2.706,2.706,0,0,1,.342-1.312,2.736,2.736,0,0,1,1.03-1.017,3.45,3.45,0,0,1,1.653-.389,3.98,3.98,0,0,1,1.346.231,3.012,3.012,0,0,1,.978.585,6.317,6.317,0,0,1,.7.692c.085.09.141.141.141.141h.111l-.645-1.7a.111.111,0,0,1-.06-.026h-.081a9.514,9.514,0,0,0-2.294-.363,4.2,4.2,0,0,0-2.1.53A3.479,3.479,0,0,0,33.5,35.619a3.811,3.811,0,0,0-.474,1.854,3.7,3.7,0,0,0,.308,1.457,4.115,4.115,0,0,0,.812,1.141,2.757,2.757,0,0,0,.842.59,12.361,12.361,0,0,0,1.649.654,12.484,12.484,0,0,1,1.79.713,3.276,3.276,0,0,1,1.119.876,2.149,2.149,0,0,1,.449,1.4,2.751,2.751,0,0,1-.115.807,2.258,2.258,0,0,1-.525.927,2.73,2.73,0,0,1-1.094.76,4.765,4.765,0,0,1-1.79.3,6.1,6.1,0,0,1-1.85-.252,2.653,2.653,0,0,1-1.145-.7,2.9,2.9,0,0,1-.564-1.081,11.284,11.284,0,0,1-.162-1.453H32.6v3.913h3.64c.226,0,.615-.034,1.2-.09a5.552,5.552,0,0,0,1.23-.269,3.786,3.786,0,0,0,1.478-1.384,3.6,3.6,0,0,0,.6-2.093,3.306,3.306,0,0,0-.679-2.136" transform="translate(106.673 110.453)" fill="#46556a"/>
        <path id="Path_373" data-name="Path 373" d="M46.6,41.548a4.147,4.147,0,0,0-1.5-1.222,14.75,14.75,0,0,0-1.824-.726c-.252-.068-.585-.205-1.034-.367a4.129,4.129,0,0,1-1.064-.5A2.264,2.264,0,0,1,40.509,38a2.208,2.208,0,0,1-.256-1.089,2.706,2.706,0,0,1,.342-1.312,2.779,2.779,0,0,1,1.034-1.017,3.42,3.42,0,0,1,1.649-.389,3.936,3.936,0,0,1,1.341.231,3.332,3.332,0,0,1,.983.585,5.923,5.923,0,0,1,.7.692l.141.141h.115l-.645-1.7a.111.111,0,0,1-.06-.026h-.081a9.514,9.514,0,0,0-2.294-.363,4.24,4.24,0,0,0-2.106.53,3.456,3.456,0,0,0-1.337,1.333,3.55,3.55,0,0,0-.474,1.854,3.7,3.7,0,0,0,.308,1.457,3.946,3.946,0,0,0,.812,1.141,2.845,2.845,0,0,0,.837.59,12.48,12.48,0,0,0,1.653.654,12.086,12.086,0,0,1,1.79.713,3.22,3.22,0,0,1,1.115.876,2.126,2.126,0,0,1,.449,1.4,2.879,2.879,0,0,1-.107.807,2.271,2.271,0,0,1-.53.927,2.671,2.671,0,0,1-1.094.76,4.8,4.8,0,0,1-1.794.3,6.1,6.1,0,0,1-1.85-.252,2.731,2.731,0,0,1-1.145-.7,2.953,2.953,0,0,1-.555-1.081,7.29,7.29,0,0,1-.171-1.453h-.141v3.913h3.606c.256,0,.654-.034,1.239-.09a5.666,5.666,0,0,0,1.235-.269,3.947,3.947,0,0,0,1.482-1.384,3.694,3.694,0,0,0,.585-2.093,3.328,3.328,0,0,0-.675-2.136" transform="translate(128.046 110.453)" fill="#46556a"/>
        <path id="Path_374" data-name="Path 374" d="M54.851,45.508a1.949,1.949,0,0,1-.308.965.875.875,0,0,1-.641.363,7.039,7.039,0,0,1-1.371.068H50.126a5.485,5.485,0,0,1-1.149-.085.9.9,0,0,1-.56-.53,4.094,4.094,0,0,1-.175-1.367v-4.2H52.5a1.347,1.347,0,0,1,.594.077c.137.034.222.175.252.372h.137V39.9h-.137a.339.339,0,0,1-.252.367,1.953,1.953,0,0,1-.7.085H48.242V34.26h4.481a4.064,4.064,0,0,1,.735.047.66.66,0,0,1,.329.342,5.715,5.715,0,0,1,.312,1.03h.132V33.807h-8.5v.141c.419,0,.7.077.786.273a2.306,2.306,0,0,1,.167,1.1V46.256c0,.419-.085.675-.226.778a1.317,1.317,0,0,1-.726.2v.124h9.258V45.508Z" transform="translate(149.631 110.62)" fill="#46556a"/>
        <path id="Path_375" data-name="Path 375" d="M66.556,46.4a3.334,3.334,0,0,0-.329.192c-.115.047-.226.1-.316.137a2.044,2.044,0,0,1-.923.2,2.626,2.626,0,0,1-1.312-.333,5.24,5.24,0,0,1-.923-.76,26.21,26.21,0,0,1-1.73-2.243c-.619-.893-1.017-1.423-1.124-1.64l-.085-.145-.953-1.461a5.673,5.673,0,0,0,1.179-.884,4.475,4.475,0,0,0,.867-1.235,3.121,3.121,0,0,0,.338-1.418A3.079,3.079,0,0,0,60.716,35a2.7,2.7,0,0,0-1.427-.944,5.333,5.333,0,0,0-1.072-.235c-.389-.013-.978-.013-1.811-.013h-3.87v.141a1.754,1.754,0,0,1,.59.077.431.431,0,0,1,.282.3,2.169,2.169,0,0,1,.111.82V45.941a2.119,2.119,0,0,1-.167,1.051c-.107.141-.389.214-.816.239v.12h3.5v-.12c-.256-.026-.449-.056-.56-.077a.6.6,0,0,1-.308-.337,2.562,2.562,0,0,1-.085-.756V40.853H56.88l.5-.026,1.371,2.093a.243.243,0,0,1,.03.12c.812,1.226,1.593,2.26,2.29,3.136a4.649,4.649,0,0,0,.9.816,3.465,3.465,0,0,0,.923.376,2.779,2.779,0,0,0,.846.124,6.586,6.586,0,0,0,1.034-.09,6.143,6.143,0,0,0,.812-.2,6.2,6.2,0,0,0,1.034-.611Zm-8.143-6.276a2.424,2.424,0,0,1-.893.273,4.667,4.667,0,0,1-1.008.12H55.085V34.163h1.124a5.055,5.055,0,0,1,1.538.192,2.712,2.712,0,0,1,1.593,1.457,2.563,2.563,0,0,1,.333.931,3.611,3.611,0,0,1,.115.9A2.82,2.82,0,0,1,59.4,39.2a2.418,2.418,0,0,1-.983.923" transform="translate(171.898 110.623)" fill="#46556a"/>
        <path id="Path_376" data-name="Path 376" d="M320.17,54.482a30,30,0,0,0-60,0h16.652a13.348,13.348,0,0,1,26.7,0V67.857h-18.6A74.349,74.349,0,0,1,211.788,7.075V2.8a2.8,2.8,0,0,0-2.8-2.8H197.9a2.794,2.794,0,0,0-2.8,2.8V67.857H181.759a13.34,13.34,0,0,1-13.346-13.346V26.7a2.215,2.215,0,0,0-2.213-2.209H153.965a2.206,2.206,0,0,0-2.209,2.209V54.512A13.344,13.344,0,0,1,138.4,67.857H125.065V2.8a2.8,2.8,0,0,0-2.8-2.8H111.185a2.8,2.8,0,0,0-2.8,2.8v4.93A74.37,74.37,0,0,1,35.377,67.857H30.024V27.286a2.8,2.8,0,0,0-2.8-2.8H16.144a2.8,2.8,0,0,0-2.8,2.8V89.547A13.365,13.365,0,0,1,0,102.9v16.644a30.026,30.026,0,0,0,29.994-30h.03V84.514h78.358v32.237a2.805,2.805,0,0,0,2.8,2.794h11.077a2.805,2.805,0,0,0,2.8-2.794V84.514H138.4a30.053,30.053,0,0,0,21.689-9.232,29.975,29.975,0,0,0,21.668,9.232h13.346v32.237a2.807,2.807,0,0,0,2.8,2.794h11.082a2.805,2.805,0,0,0,2.8-2.794V84.514H317.393a2.792,2.792,0,0,0,2.8-2.8V54.482ZM69.182,67.857a81.81,81.81,0,0,0,39.2-37.718V67.857Zm155.956,0h-13.35V29.973A81.766,81.766,0,0,0,251.1,67.857Z" transform="translate(0 0.001)" fill="#46556a"/>
      </g>
    </g>
  </g>
</svg>
