<svg xmlns="http://www.w3.org/2000/svg" xmlns:xlink="http://www.w3.org/1999/xlink" width="138" height="137" viewBox="0 0 138 137">
  <defs>
    <clipPath id="clip-path">
      <rect id="Rectangle_65" data-name="Rectangle 65" width="138" height="137" transform="translate(0.367 -0.121)" fill="#48586f"/>
    </clipPath>
  </defs>
  <g id="Group_271" data-name="Group 271" transform="translate(-0.367 0.121)">
    <g id="Group_85" data-name="Group 85" transform="translate(0 0)" clip-path="url(#clip-path)">
      <path id="Path_45" data-name="Path 45" d="M201.261,13.441A45.746,45.746,0,0,1,214.7,45.889h-.009A45.889,45.889,0,1,1,168.812.009V0a45.745,45.745,0,0,1,32.449,13.441M169.608,8.614h-.8a37.284,37.284,0,1,0,37.275,37.275v-.8a37.284,37.284,0,0,0-36.48-36.48" transform="translate(-76.268 0.352)" fill="#48586f"/>
      <path id="Path_46" data-name="Path 46" d="M38.082,216.787l17.687,17.687h0l.011.012,1.51,1.51-1.521,1.521-4.146,4.146h0L25.017,268.268A14.663,14.663,0,0,1,4.28,247.531l26.606-26.607,4.146-4.145h0l.012-.011,1.51-1.51,1.51,1.51.011.011Z" transform="translate(0.742 -134.505)" fill="#48586f"/>
      <path id="Path_47" data-name="Path 47" d="M104.537,203.148l13.216,13.216L133,201.117q-3.52-2.967-6.887-6.329t-6.33-6.887Z" transform="translate(-64.749 -117.366)" fill="#48586f" fill-rule="evenodd"/>
      <path id="Path_48" data-name="Path 48" d="M175.706,47.043a28.789,28.789,0,0,1,20.147-8.436,2.143,2.143,0,0,0-.016-4.286,33.13,33.13,0,0,0-29.191,17.936,2.146,2.146,0,0,0,3.815,1.967,28.2,28.2,0,0,1,5.245-7.18" transform="translate(-103.51 -21.15)" fill="#48586f" fill-rule="evenodd"/>
    </g>
  </g>
</svg>
