<svg id="Group_17461" data-name="Group 17461" xmlns="http://www.w3.org/2000/svg" xmlns:xlink="http://www.w3.org/1999/xlink" width="523.625" height="499.473" viewBox="0 0 523.625 499.473">
  <defs>
    <clipPath id="clip-path">
      <rect id="Rectangle_127" data-name="Rectangle 127" width="523.625" height="499.473" fill="none"/>
    </clipPath>
    <clipPath id="clip-path-2">
      <path id="Path_184" data-name="Path 184" d="M224.091,626.895c-7.007,5.047-9.536,13.262-9.065,21.866.7,12.827,8.069,26.525,17.19,31.877,15.241,8.941,17.5,24.616,7.645,25.079-2.509.114-6.243-.58-10.383-1.254-.01,0-.02-.005-.029-.005-.039-.01-.078-.015-.116-.024-12.083-1.98-27.539-3.739-26.187,15.213,1.826,25.527,36.763,25.933,51.107,31.74S259.2,769.3,249.34,767.07s-26.879-4.448-24.623,11.677,17.494,17.447,51.988,21.44,47.538,46.528,47.538,46.528a6.361,6.361,0,0,0,3.523-.446,4.659,4.659,0,0,0,2.278-2.643c2.42-6.191-1.747-20.184.877-30.064,3.571-13.444,16.543-26.447,31.745-51.107s4.424-47.036-6.331-50.606c-5.077-1.687-7.849,4.21-10.351,10.107-2.8,6.6-5.259,13.191-10.23,9.176-9.42-7.6,12.47-60.486-9.493-69.419-11.986-4.876-18.217,4.522-23.153,13.921-4.107,7.82-7.317,15.639-12.2,15.237-10.752-.885-12.567-21.04-17.967-44.326C269.2,630.433,255.6,621.194,241.8,621.2a30.162,30.162,0,0,0-17.707,5.7" transform="translate(-203.063 -621.195)" fill="#f8af34"/>
    </clipPath>
    <clipPath id="clip-path-3">
      <rect id="Rectangle_129" data-name="Rectangle 129" width="523.625" height="499.473" fill="#46556a"/>
    </clipPath>
    <clipPath id="clip-path-4">
      <path id="Path_190" data-name="Path 190" d="M192.839,1029.348c-14.349,7.33,4.531,26-.7,31.141s-16.407-2.879-30.786-10.443-30.52,1.846-31.808,16.405c-.516,5.847,2.588,10.8,7.224,14.376,6.911,5.337,17.231,7.63,24.036,5.313,11.37-3.87,20.439,1.928,16.3,7.206a41.585,41.585,0,0,1-5.257,4.785s-.011.008-.016.013c-.022.016-.042.034-.064.049-6.386,5.337-14.155,12.508-3.8,20.23,13.945,10.4,29.671-7.4,39.03-12.2s11.414,5.411,5.887,9.493-14.227,11.854-4.928,17.856,16.746-1.252,34.121-17.226,45.054-3.793,45.054-3.793a4.324,4.324,0,0,0,1.335-2.011,3.166,3.166,0,0,0-.348-2.346c-2.111-4-11.161-8.066-15.079-13.8-5.331-7.808-6.26-20.258-12.2-39.032s-22.236-23.168-28.849-19.219,8.875,17.687.781,19.154c-3.745.68-9.5-6.39-16.023-13.46-6.231-6.753-13.164-13.506-19.719-13.506a9.086,9.086,0,0,0-4.192,1.017" transform="translate(-129.489 -1028.331)" fill="#f8af34"/>
    </clipPath>
    <clipPath id="clip-path-6">
      <path id="Path_196" data-name="Path 196" d="M1015.289,655.352c-5.4,23.286-7.215,43.441-17.967,44.325-4.883.4-8.094-7.417-12.2-15.237-4.936-9.4-11.167-18.8-23.153-13.921-21.964,8.934-.074,61.815-9.494,69.419-4.971,4.015-7.432-2.581-10.23-9.176-2.5-5.9-5.274-11.794-10.351-10.107-10.755,3.569-21.532,25.951-6.331,50.606s28.173,37.663,31.745,51.106c2.624,9.88-1.543,23.873.877,30.064a4.662,4.662,0,0,0,2.278,2.643,6.361,6.361,0,0,0,3.523.446s13.039-42.536,47.538-46.528,49.726-5.319,51.987-21.44-14.767-13.9-24.623-11.678-19.252-9.875-4.912-15.683,49.281-6.212,51.107-31.74c1.353-18.952-14.1-17.193-26.186-15.213-.039.01-.078.015-.117.024-.009,0-.019,0-.029,0-4.141.675-7.874,1.369-10.383,1.254-9.857-.463-7.6-16.137,7.645-25.079,9.121-5.352,16.49-19.05,17.19-31.877.472-8.6-2.057-16.82-9.065-21.866a30.163,30.163,0,0,0-17.707-5.7c-13.806,0-27.4,9.238-31.144,25.353" transform="translate(-918.034 -629.999)" fill="none"/>
    </clipPath>
    <linearGradient id="linear-gradient" x1="-1.716" y1="1.271" x2="-1.714" y2="1.271" gradientUnits="objectBoundingBox">
      <stop offset="0" stop-color="#f8526d"/>
      <stop offset="1" stop-color="#fca163"/>
    </linearGradient>
    <clipPath id="clip-path-8">
      <path id="Path_202" data-name="Path 202" d="M1087.313,1050.641c-6.523,7.069-12.277,14.14-16.022,13.46-8.094-1.467,7.4-15.207.781-19.154s-22.916.448-28.849,19.219-6.865,31.224-12.2,39.032c-3.918,5.738-12.968,9.809-15.079,13.8a3.17,3.17,0,0,0-.348,2.346,4.324,4.324,0,0,0,1.336,2.011s27.676-12.184,45.053,3.793,24.823,23.223,34.122,17.226.594-13.773-4.928-17.856-3.469-14.291,5.887-9.493,25.084,22.6,39.03,12.2c10.352-7.722,2.582-14.893-3.8-20.23-.022-.016-.042-.034-.064-.05,0,0-.011-.008-.015-.013a41.606,41.606,0,0,1-5.258-4.785c-4.139-5.277,4.929-11.076,16.3-7.205,6.8,2.316,17.126.023,24.036-5.313,4.637-3.58,7.741-8.529,7.225-14.376-1.288-14.56-17.427-23.967-31.809-16.406s-25.555,15.582-30.786,10.443,13.65-23.81-.7-31.141a9.092,9.092,0,0,0-4.192-1.017c-6.555,0-13.488,6.753-19.719,13.506" transform="translate(-1015.506 -1037.135)" fill="#f8af34"/>
    </clipPath>
    <clipPath id="clip-path-10">
      <path id="Rectangle_138" data-name="Rectangle 138" d="M78.566,0H371.608a78.568,78.568,0,0,1,78.568,78.568V221.9a78.568,78.568,0,0,1-78.568,78.568H78.567A78.567,78.567,0,0,1,0,221.9V78.566A78.566,78.566,0,0,1,78.566,0Z" fill="#46556a"/>
    </clipPath>
    <clipPath id="clip-path-12">
      <rect id="Rectangle_143" data-name="Rectangle 143" width="217.104" height="22.277" fill="#46556a"/>
    </clipPath>
    <clipPath id="clip-path-13">
      <path id="Path_218" data-name="Path 218" d="M877.236,398.788,911.9,435.229a8.123,8.123,0,0,0,9.827,0c5.262-3.763,1.12-10.827,1.12-10.827l-39.631-32.342Z" transform="translate(-877.236 -392.059)" fill="#727272"/>
    </clipPath>
    <clipPath id="clip-path-14">
      <path id="Path_219" data-name="Path 219" d="M576.926,157.257a55.789,55.789,0,1,1,55.787,55.792,55.51,55.51,0,0,1-55.787-55.792m1.931-34.238A63.819,63.819,0,0,0,672.189,207.4q1.969-1.554,3.812-3.253c1.095-1.017,2.16-2.067,3.181-3.152q1.751-1.86,3.346-3.852c.384-.477.764-.958,1.128-1.449a63.818,63.818,0,1,0-104.8-72.677" transform="translate(-568.902 -93.446)" fill="#727272"/>
    </clipPath>
  </defs>
  <path id="Path_182" data-name="Path 182" d="M198.775,1311.3l32.78,13.711,239.886,4.128,21.737-35.352-252.055-4.321Z" transform="translate(-131.701 -854.353)" fill="#ffe1ef"/>
  <g id="Group_137" data-name="Group 137" transform="translate(0 0)" clip-path="url(#clip-path)">
    <path id="Path_183" data-name="Path 183" d="M413.221,225.159c-80.209-8,3.619-42,37.2-70.858s-27.37-55.027-91.72-62.728,6.441-9.814,3.237-45.744S292.887-.669,248.831.036V.17c-44.048-.559-109.087,10.1-112.271,45.805-3.2,35.931,67.586,38.044,3.237,45.744S14.5,125.586,48.078,154.447s117.406,62.858,37.2,70.858S-16.292,301.01,11.7,328.487s78.378,26.772,69.124,43.68-53.029,26.067-37.7,62.645,53.032,18.842,53.032,18.842l153.51,4.3v-.169l152.676-4.275s37.7,17.736,53.032-18.842-28.447-45.736-37.7-62.645,41.132-16.2,69.124-43.68,6.633-95.181-73.576-103.181" transform="translate(0 -0.003)" fill="#f8af34"/>
  </g>
  <g id="Group_139" data-name="Group 139" transform="translate(68.521 209.614)" clip-path="url(#clip-path-2)">
    <rect id="Rectangle_128" data-name="Rectangle 128" width="176.073" height="225.684" transform="translate(-1.269 -0.001)" fill="#f8af34"/>
  </g>
  <g id="Group_141" data-name="Group 141" transform="translate(0 0)" clip-path="url(#clip-path-3)">
    <path id="Path_185" data-name="Path 185" d="M402.241,897.742a4.66,4.66,0,0,1-2.278,2.643c-14.269-69.355-86.737-195.432-87.933-197.513,56.382,80.57,83.05,168.5,90.211,194.87" transform="translate(-206.739 -465.697)" fill="#46556a"/>
    <path id="Path_186" data-name="Path 186" d="M248.852,912.932s55.671,14.009,73.644,26.931l-2.6-6.792s-48.075-20.975-71.048-20.139" transform="translate(-164.88 -604.858)" fill="#f8526d"/>
    <path id="Path_187" data-name="Path 187" d="M321.783,1079.245s55.671,14.009,73.644,26.931l-2.6-6.792s-48.075-20.975-71.048-20.139" transform="translate(-213.201 -715.05)" fill="#46556a"/>
    <path id="Path_188" data-name="Path 188" d="M456.358,841.991s6.32-32.272,25.139-56.4c0,0-10.9,17-16.458,36.906s-6.348,28.644-6.348,28.644Z" transform="translate(-302.365 -520.503)" fill="#f8526d"/>
    <path id="Path_189" data-name="Path 189" d="M541.879,1049.012s6.32-32.272,25.139-56.4c0,0-10.9,17-16.458,36.907s-6.348,28.644-6.348,28.644Z" transform="translate(-359.028 -657.667)" fill="#46556a"/>
  </g>
  <g id="Group_143" data-name="Group 143" transform="translate(43.695 346.998)" clip-path="url(#clip-path-4)">
    <rect id="Rectangle_130" data-name="Rectangle 130" width="159.643" height="111.24" transform="translate(-0.46 0)" fill="#f8af34"/>
  </g>
  <g id="Group_145" data-name="Group 145" transform="translate(0 0)" clip-path="url(#clip-path)">
    <path id="Path_191" data-name="Path 191" d="M324.039,1186.209a3.169,3.169,0,0,1,.348,2.346c-42.022-23.462-139.077-42.175-140.679-42.483,66.5,6.776,123.582,32.109,140.331,40.137" transform="translate(-121.718 -759.344)" fill="#46556a"/>
    <path id="Path_192" data-name="Path 192" d="M263.751,1217.685s31.934-22.421,46.566-25.929l-4.648-1.681s-32.144,15.419-41.918,27.61" transform="translate(-174.751 -788.498)" fill="#46556a"/>
    <path id="Path_193" data-name="Path 193" d="M381.714,1254.029s31.934-22.421,46.566-25.93l-4.648-1.681s-32.145,15.419-41.918,27.61" transform="translate(-252.909 -812.578)" fill="#46556a"/>
    <path id="Path_194" data-name="Path 194" d="M341.314,1108.206s-13.8-17.586-17.853-37.985a105.009,105.009,0,0,0,11.679,24.861c7.774,11.7,11.918,15.988,11.918,15.988Z" transform="translate(-214.313 -709.088)" fill="#46556a"/>
    <path id="Path_195" data-name="Path 195" d="M485.814,1156.154s-13.8-17.586-17.853-37.985a104.989,104.989,0,0,0,11.679,24.86c7.774,11.7,11.918,15.988,11.918,15.988Z" transform="translate(-310.053 -740.856)" fill="#46556a"/>
  </g>
  <g id="Group_147" data-name="Group 147" transform="translate(309.78 212.585)" clip-path="url(#clip-path-6)">
    <rect id="Rectangle_132" data-name="Rectangle 132" width="176.073" height="225.684" transform="translate(-7.67 -0.001)" fill="url(#linear-gradient)"/>
  </g>
  <g id="Group_149" data-name="Group 149" transform="translate(0 0)" clip-path="url(#clip-path)">
    <path id="Path_197" data-name="Path 197" d="M1037.025,906.546a4.661,4.661,0,0,0,2.278,2.643c14.269-69.355,86.737-195.433,87.933-197.513-56.382,80.57-83.05,168.5-90.211,194.87" transform="translate(-687.092 -471.53)" fill="#f8526d"/>
    <path id="Path_198" data-name="Path 198" d="M1222.943,921.737s-55.671,14.009-73.644,26.931l2.6-6.792s48.075-20.975,71.048-20.139" transform="translate(-761.481 -610.692)" fill="#f8526d"/>
    <path id="Path_199" data-name="Path 199" d="M1150.012,1088.05s-55.671,14.009-73.644,26.93l2.6-6.792s48.075-20.975,71.048-20.139" transform="translate(-713.16 -720.885)" fill="#f8526d"/>
    <path id="Path_200" data-name="Path 200" d="M1110.677,850.8s-6.32-32.272-25.139-56.4c0,0,10.9,17,16.458,36.907s6.347,28.643,6.347,28.643Z" transform="translate(-719.235 -526.336)" fill="#f8526d"/>
    <path id="Path_201" data-name="Path 201" d="M1025.156,1057.818s-6.32-32.272-25.139-56.4c0,0,10.9,17,16.458,36.906s6.348,28.644,6.348,28.644Z" transform="translate(-662.572 -663.501)" fill="#f8526d"/>
  </g>
  <g id="Group_151" data-name="Group 151" transform="translate(342.671 349.969)" clip-path="url(#clip-path-8)">
    <rect id="Rectangle_134" data-name="Rectangle 134" width="159.643" height="111.24" transform="translate(-0.114)" fill="#f8af34"/>
  </g>
  <g id="Group_153" data-name="Group 153" transform="translate(0 0)" clip-path="url(#clip-path)">
    <path id="Path_203" data-name="Path 203" d="M1015.948,1195.013a3.17,3.17,0,0,0-.348,2.346c42.022-23.463,139.078-42.175,140.68-42.483-66.5,6.776-123.583,32.109-140.331,40.137" transform="translate(-672.834 -765.177)" fill="#46556a"/>
    <path id="Path_204" data-name="Path 204" d="M1261.213,1226.489s-31.935-22.421-46.565-25.929l4.648-1.681s32.145,15.419,41.918,27.61" transform="translate(-804.778 -794.332)" fill="#46556a"/>
    <path id="Path_205" data-name="Path 205" d="M1143.251,1262.834s-31.934-22.421-46.566-25.93l4.648-1.68s32.145,15.419,41.918,27.61" transform="translate(-726.621 -818.412)" fill="#46556a"/>
    <path id="Path_206" data-name="Path 206" d="M1228.749,1117.011s13.8-17.586,17.853-37.985a105.007,105.007,0,0,1-11.679,24.861c-7.773,11.7-11.918,15.988-11.918,15.988Z" transform="translate(-810.315 -714.922)" fill="#46556a"/>
    <path id="Path_207" data-name="Path 207" d="M1084.249,1164.958s13.8-17.586,17.853-37.985a105,105,0,0,1-11.678,24.86c-7.774,11.7-11.918,15.988-11.918,15.988Z" transform="translate(-714.576 -746.689)" fill="#f8526d"/>
    <path id="Path_208" data-name="Path 208" d="M250.614,1234.2c-53.723.757-63.419,9.589-58.559,15.476S46.433,1246.2,44.56,1254.3s17.326,6.99,17.409,15.471-38.747.661-40,12.371,44.441,8.551,72.539,8.063,67.436,8.295,45.582,14.15-2.5,12.2,62.441,12.686,164.843-.976,184.2-5.855-21.23-12.366,5-18.381,92.072-7.128,112.393-8.943c21.854-1.952,45.761-14.307,27.652-21.934-10.232-1.876-4.549-4.989-45.76-7.628s-93.766-1.839-81.85-5.655-51.227-15.885-153.551-14.444" transform="translate(-14.542 -817.653)" fill="#46556a"/>
    <path id="Path_209" data-name="Path 209" d="M243.922,1269.563h95.437s-1.85-12.589,2.944-12.589,47.1-2.289,49.676,0,39.509,14.271,39.509,14.271l32.723-1.682s59.317-2.194,59.833,6.294,7.452,13.733-50.957,14.878-212.03,0-212.03,0-38.286-1.145-17.135-21.172" transform="translate(-157.392 -832.149)" fill="#7a8184"/>
    <rect id="Rectangle_135" data-name="Rectangle 135" width="127.837" height="142.723" transform="translate(193.338 274.405)" fill="#727272"/>
  </g>
  <g id="Group_155" data-name="Group 155" transform="translate(34.476 80.952)" clip-path="url(#clip-path-10)">
    <rect id="Rectangle_137" data-name="Rectangle 137" width="450.176" height="300.464" transform="translate(0)" fill="#46556a"/>
  </g>
  <g id="Group_157" data-name="Group 157" transform="translate(0 0)" clip-path="url(#clip-path)">
    <rect id="Rectangle_139" data-name="Rectangle 139" width="415.212" height="223.269" transform="translate(52.461 98.351)" fill="#fff"/>
    <rect id="Rectangle_140" data-name="Rectangle 140" width="406.167" height="214.224" transform="translate(56.984 102.874)" fill="#46556a"/>
  </g>
  <g id="Group_159" data-name="Group 159" transform="translate(145.635 417.129)" clip-path="url(#clip-path-12)">
    <rect id="Rectangle_142" data-name="Rectangle 142" width="217.104" height="22.277" transform="translate(0)" fill="#46556a"/>
  </g>
  <path id="Path_210" data-name="Path 210" d="M310.831,449.484h-3.842a41.544,41.544,0,0,1-41.544-41.544h0a41.544,41.544,0,0,1,41.544-41.544h3.842a41.544,41.544,0,0,1,41.544,41.544h0a41.544,41.544,0,0,1-41.544,41.544" transform="translate(-175.873 -242.76)" fill="#fff"/>
  <path id="Path_211" data-name="Path 211" d="M373.453,530.014H330.272V518.939a15.471,15.471,0,0,1,15.472-15.471h12.238a15.472,15.472,0,0,1,15.472,15.471Z" transform="translate(-218.825 -333.579)" fill="#b6bbbd"/>
  <path id="Path_212" data-name="Path 212" d="M380.754,420.473a14.012,14.012,0,1,1-14.013-14.013,14.013,14.013,0,0,1,14.013,14.013" transform="translate(-233.704 -269.306)" fill="#b6bbbd"/>
  <rect id="Rectangle_144" data-name="Rectangle 144" width="206.249" height="14.474" transform="translate(229.763 132.745)" fill="#b6bbbd"/>
  <rect id="Rectangle_145" data-name="Rectangle 145" width="206.249" height="14.474" transform="translate(229.763 157.942)" fill="#b6bbbd"/>
  <rect id="Rectangle_146" data-name="Rectangle 146" width="206.249" height="14.474" transform="translate(229.763 183.14)" fill="#b6bbbd"/>
  <rect id="Rectangle_147" data-name="Rectangle 147" width="206.249" height="14.474" transform="translate(229.763 208.337)" fill="#b6bbbd"/>
  <rect id="Rectangle_148" data-name="Rectangle 148" width="206.249" height="14.474" transform="translate(229.763 233.535)" fill="#b6bbbd"/>
  <rect id="Rectangle_149" data-name="Rectangle 149" width="206.249" height="14.474" transform="translate(229.763 258.732)" fill="#b6bbbd"/>
  <rect id="Rectangle_150" data-name="Rectangle 150" width="206.249" height="14.473" transform="translate(229.763 283.929)" fill="#fff"/>
  <path id="Path_213" data-name="Path 213" d="M264.778,680.89H241.61a4.06,4.06,0,0,1-4.06-4.06v-1.912a4.06,4.06,0,0,1,4.06-4.06h23.168a4.06,4.06,0,0,1,4.06,4.06v1.912a4.06,4.06,0,0,1-4.06,4.06" transform="translate(-157.391 -444.485)" fill="#b6bbbd"/>
  <path id="Path_214" data-name="Path 214" d="M370.212,680.284H347.044a4.06,4.06,0,0,1-4.06-4.06v-1.912a4.06,4.06,0,0,1,4.06-4.06h23.168a4.06,4.06,0,0,1,4.06,4.06v1.912a4.06,4.06,0,0,1-4.06,4.06" transform="translate(-227.248 -444.084)" fill="#b6bbbd"/>
  <path id="Path_215" data-name="Path 215" d="M475.645,679.677H452.477a4.06,4.06,0,0,1-4.06-4.06V673.7a4.06,4.06,0,0,1,4.06-4.06h23.168a4.06,4.06,0,0,1,4.06,4.06v1.912a4.06,4.06,0,0,1-4.06,4.06" transform="translate(-297.104 -443.682)" fill="#b6bbbd"/>
  <path id="Path_216" data-name="Path 216" d="M874.572,404.5,914.2,436.845s4.142,7.064-1.12,10.827a8.122,8.122,0,0,1-9.826,0l-34.667-36.441Z" transform="translate(-575.493 -268.009)" fill="#7a8184"/>
  <path id="Path_217" data-name="Path 217" d="M560.254,169.695a63.815,63.815,0,0,0,107.1,46.892q1.838-1.7,3.545-3.54c1.031-1.114,2.028-2.271,2.981-3.458q1.6-1.992,3.035-4.11c.345-.511.681-1.021,1.012-1.542a63.818,63.818,0,1,0-117.673-34.242m111.063,29.676a55.792,55.792,0,1,1-91.591-63.529,55.792,55.792,0,1,1,91.591,63.529" transform="translate(-371.202 -70.155)" fill="#7a8184"/>
  <rect id="Rectangle_151" data-name="Rectangle 151" width="523.625" height="499.473" transform="translate(0 0)" fill="none"/>
  <g id="Group_163" data-name="Group 163" transform="translate(296.014 132.295)" clip-path="url(#clip-path-13)">
    <rect id="Rectangle_152" data-name="Rectangle 152" width="52.338" height="49.679" transform="translate(-2.658 0.151) rotate(-3.252)" fill="#727272"/>
  </g>
  <g id="Group_165" data-name="Group 165" transform="translate(191.97 31.531)" clip-path="url(#clip-path-14)">
    <rect id="Rectangle_153" data-name="Rectangle 153" width="134.662" height="134.662" transform="matrix(0.998, -0.057, 0.057, 0.998, -7.228, 0.411)" fill="#727272"/>
  </g>
  <g id="Group_167" data-name="Group 167" transform="translate(0 0)" clip-path="url(#clip-path)">
    <rect id="Rectangle_154" data-name="Rectangle 154" width="89.971" height="194.939" transform="translate(217.623 290.607)" fill="#fff"/>
    <rect id="Rectangle_155" data-name="Rectangle 155" width="81.483" height="193.907" transform="translate(299.048 291.639)" fill="#b59592"/>
    <path id="Path_220" data-name="Path 220" d="M1391.222,873.3A35.82,35.82,0,0,1,1377.4,894.8a47.563,47.563,0,0,1-7.587,4.669l-6.628-13.311c7.557-3.762,11.973-9,13.5-16,3.133-14.363-6.167-33.964-14.683-47.639A135.891,135.891,0,0,0,1353,809.643l4.011-3.241,7.553-6.107c.137.171,1.587,1.966,3.754,4.981q.385.535.8,1.126a175.624,175.624,0,0,1,10.122,16.114c.327.588.651,1.186.974,1.788,10.222,19.091,13.924,35.577,11,49" transform="translate(-896.446 -530.245)" fill="#fff"/>
    <path id="Path_221" data-name="Path 221" d="M1379.245,834.507h-17.236A135.876,135.876,0,0,0,1353,821.634l4.011-3.241h12.11a175.487,175.487,0,0,1,10.122,16.114" transform="translate(-896.446 -542.236)" fill="#b59592"/>
    <path id="Path_222" data-name="Path 222" d="M1410.687,883.083a35.822,35.822,0,0,1-13.821,21.492l-4.3-8.642c7.557-3.762,11.973-9,13.5-16,4.393-20.117-15.609-50.5-23.686-60.512l5.4-4.368a174.531,174.531,0,0,1,11.9,19.028c10.222,19.091,13.925,35.577,11,49" transform="translate(-915.912 -540.025)" fill="#b59592"/>
    <path id="Path_223" data-name="Path 223" d="M1320.972,711.278v16.593a18.619,18.619,0,0,1-18.62,18.62h-61.411a18.621,18.621,0,0,1-18.619-18.62V711.278a18.619,18.619,0,0,1,18.619-18.619h61.411a18.621,18.621,0,0,1,18.62,18.619" transform="translate(-809.863 -458.93)" fill="#2f295a"/>
    <path id="Path_224" data-name="Path 224" d="M1250.33,1001.191a18.618,18.618,0,0,1-18.619,18.619h-70.039a18.619,18.619,0,1,1,0-37.238h70.039a18.621,18.621,0,0,1,18.619,18.619" transform="translate(-757.342 -651.015)" fill="#2f295a"/>
    <path id="Path_225" data-name="Path 225" d="M1329.358,711.278v16.593a18.619,18.619,0,0,1-18.619,18.62h-61.411a18.571,18.571,0,0,1-14.348-6.754c19.746.093,52.731.193,60.924-.074,11.9-.394,18.958-2.212,19.7-24.886.364-11.207-3.6-18.058-7.7-22.117h2.84a18.621,18.621,0,0,1,18.619,18.619" transform="translate(-818.249 -458.93)" fill="#232047"/>
    <path id="Path_226" data-name="Path 226" d="M1260.424,1001.191a18.618,18.618,0,0,1-18.619,18.619h-70.039a18.572,18.572,0,0,1-13.479-5.773h69.265s-8.482-9.91-6.353-21.559a17.35,17.35,0,0,1,5.338-9.906H1241.8a18.621,18.621,0,0,1,18.619,18.619" transform="translate(-767.436 -651.015)" fill="#232047"/>
    <path id="Path_227" data-name="Path 227" d="M1042.905,775.558s-5.235,18.261-6.309,19.332-13.588,4.367-13.588,4.367-12.863.871-14.541.4-3.894.4-4.363,1.209-2.18,1.309-3.055,1.376a5.958,5.958,0,0,1-2.482-1.01s-1.479,1.547-2.486,1.678-2.518-1.543-2.518-1.543l-1.408,1.074c-.438.338-1.931-.167-2.536-1.377a24.6,24.6,0,0,1-1.12-4.011,20.754,20.754,0,0,1-.69-5.1,73.708,73.708,0,0,1,2.112-7.151c.455-1.156,3.827-2.82,5.288-3.222a7.434,7.434,0,0,1,4.328.555,36.785,36.785,0,0,0,3.88.957,57.82,57.82,0,0,1,5.384,2.97l13.695-1.558,4.232-15.569,1.5-5.53,12.525-1.006Z" transform="translate(-654.465 -505.137)" fill="#e26889" fill-rule="evenodd"/>
    <path id="Path_228" data-name="Path 228" d="M1028.683,799.843c-.918.459-13.343,0-13.343,0l-8.379-.473s-5.067.132-6.181-.224-7.155,3.051-8.46,4.118-1.835,1.366-2.013,3.556,1.184,3.556-.594,3.556a2.137,2.137,0,0,1-1.216-.487,20.742,20.742,0,0,1-.69-5.1,73.618,73.618,0,0,1,2.112-7.151c.455-1.156,3.826-2.82,5.288-3.222a7.432,7.432,0,0,1,4.328.555,36.833,36.833,0,0,0,3.88.957,57.869,57.869,0,0,1,5.384,2.97l13.7-1.558,4.232-15.569a5.339,5.339,0,0,1,4.594,4.573c.8,4.623-1.721,13.044-2.639,13.5" transform="translate(-654.465 -517.971)" fill="#fbaea8" fill-rule="evenodd"/>
    <path id="Path_229" data-name="Path 229" d="M1050.08,782.011l.394,2.424,1.044,6.4,26.641,1.208,7.185-17.708-3.881-10.475-2.81-7.579-5.379,1.818-5.888,1.989-3.613,20.362Z" transform="translate(-695.742 -501.086)" fill="#11afde"/>
    <path id="Path_230" data-name="Path 230" d="M1197.45,527.464a25.162,25.162,0,0,1-1.127,6.974,29.869,29.869,0,0,1-9.922,14.214s-2.272,1.294-5.708,3.094c-6.074,3.169-15.782,7.919-23.048,9.918-11.373,3.133-32.532-1.814-37.514-12.98s2.553-27.984-2.692-42.429-9.861-20.761-9.783-31.728c0-.281.011-.562.029-.836.612-10.526,11.333-17.938,21.515-20.26a18.8,18.8,0,0,1,9.346.039,20.1,20.1,0,0,1,16.067-1.344c9.168,3,13.571,13.9,16.739,21.078s8.08,21.593,10.936,25.348c1.714,2.258,6.945,7.386,10.789,14.043,2.546,4.413,4.481,9.5,4.374,14.869" transform="translate(-733.889 -298.861)" fill="#53285a"/>
    <path id="Path_231" data-name="Path 231" d="M1145.054,492.851s-5.325-5.535-12.792,1.578-4.623,14.48-1.6,20.931,6.134,18.69,6.223,21.284a112.356,112.356,0,0,0-.6-14.477c-.822-6.49,8.77-29.316,8.77-29.316" transform="translate(-747.047 -325.186)" fill="#2f295a"/>
    <path id="Path_232" data-name="Path 232" d="M1193.135,512.6c-3.8-4.8-9.676-10.907-12.685-14.815-4.207-5.473-7.767-19.78-13.339-29.026s-7.585-10.43-9.246-9.836c-1.615.576-.085,3.852,0,4.022-2.728-3.908-9-6.156-9-6.156,4.979.356,4.267-1.305,4.267-1.305l-4.623-1.305c-4.623-1.3-11.024,0-11.024,0s-12.92,2.61-19.915,7.468c-4.2,2.919-7.7,8.254-9.818,12.048.611-10.526,11.334-17.937,21.515-20.259a18.8,18.8,0,0,1,9.346.039,20.1,20.1,0,0,1,16.067-1.344c9.168,3,13.571,13.9,16.739,21.077s8.08,21.593,10.935,25.348c1.714,2.258,6.945,7.386,10.79,14.044" transform="translate(-733.948 -298.861)" fill="#70377c"/>
    <path id="Path_233" data-name="Path 233" d="M1225.135,595.369a29.887,29.887,0,0,1-9.924,14.215s-2.272,1.293-5.708,3.092c-15.8-3.028-51.987-16.743-51.987-16.743l-4.024-14.576s3.5-7.936,1.208-15.237a120.39,120.39,0,0,1-3.561-17.434l38.947-5.654s1.462,7.669-.817,10.032-2.046,5.063-2.217,7.311,9.286,8.439,15.807,11.592,19.126,10.8,21.04,17.438a43.956,43.956,0,0,1,1.235,5.965" transform="translate(-762.7 -359.792)" fill="#2f295a"/>
    <path id="Path_234" data-name="Path 234" d="M1101.182,683.559l2.371.517,3.082.676,8.687,1.9,9.758,2.137s4.676-14.831,6.739-25.886a57.576,57.576,0,0,0,.911-6.6c.662-10.2.747-19.162-13.887-15.85h0c-.2.041-.394.085-.594.138a11.423,11.423,0,0,0-2.108.736.011.011,0,0,0-.007,0,13.154,13.154,0,0,0-1.866,1.044c-4.014,2.673-7.538,7.888-9.293,15.434-2.026,8.746-3.412,21.953-3.724,25.072-.041.439-.063.676-.063.676" transform="translate(-729.6 -423.878)" fill="#11afde"/>
    <path id="Path_235" data-name="Path 235" d="M1051.247,736.855l1.044,6.4,26.641,1.208,7.185-17.708-3.88-10.475,9.757,2.137s4.676-14.832,6.739-25.886l-14.754-8.062s-7.817,15.043-9.932,26.05a27.6,27.6,0,0,0-.5,3.859c-.022.427-.03.84-.022,1.241a66.592,66.592,0,0,1-2.8,19.753Z" transform="translate(-696.515 -453.506)" fill="#7c58ef"/>
    <path id="Path_236" data-name="Path 236" d="M1197.632,603.384c-3.726,7.552-15.407,9.868-21.247,8.962a7.027,7.027,0,0,1-6.344-7.048c0-.661,1.245-6.155,2.376-11.016.939-4.052,1.8-7.661,1.8-7.661l14.738-10.726a86.11,86.11,0,0,0,4.652,8.257c.439.644.951,1.4,1.486,2.187,2.058,3.025,4.479,6.573,4.479,6.573s1.78,2.92-1.946,10.472" transform="translate(-775.224 -381.566)" fill="#fbaea8" fill-rule="evenodd"/>
    <path id="Path_237" data-name="Path 237" d="M1199.764,586.339a34.6,34.6,0,0,1-2.445,5.884c-1.792,2.924-9.26,7.794-10.122,7.665a84.007,84.007,0,0,1-10.114-5.607c.938-4.052,1.8-7.661,1.8-7.661l14.738-10.726a86.13,86.13,0,0,0,4.652,8.257c.439.644.951,1.4,1.486,2.187" transform="translate(-779.889 -381.567)" fill="#e26889"/>
    <path id="Path_238" data-name="Path 238" d="M1088.5,935.431a13.875,13.875,0,0,1-1.725,4.612,19.82,19.82,0,0,1-7.294,6.828c-8.862,5.135-22.237,6.5-31.6,4.691-5.6-1.081-15.885-3.716-26.59-6.967-2.429-.74-4.879-1.5-7.3-2.3-.014,0-.029-.01-.043-.014-4.939-1.611-9.765-3.311-14.05-5q-1.35-.534-2.621-1.06c-6.259-2.61-11.021-5.164-12.728-7.312a4.758,4.758,0,0,1-.324-.459,9.573,9.573,0,0,1-1.284-6.479.041.041,0,0,1,0-.029c.043-.3.1-.594.167-.889v0c1.152-5.153,5.647-9.989,9.061-12.763a19.2,19.2,0,0,1,2.2-1.533l0,0c8.83-5.384,25.253-7.468,40.32-8.083,10.139-.413,19.666-.164,25.846.2,12.472.722,23.851,13.581,27.237,25.964a28.564,28.564,0,0,1,.946,5.256,20.614,20.614,0,0,1-.227,5.348" transform="translate(-651.189 -595.281)" fill="#2f295a"/>
    <path id="Path_239" data-name="Path 239" d="M830.271,1266.253c.467-.06,3.21-4.646,5.189-10.052s2.838-24.991-.543-25.468-8.763,7.652-14.147,12.549a104.236,104.236,0,0,1-11.224,8.747l-5.528-6.214s-10.241,2.847-13.805,3.768-8.956,2.116-9.133,2.868,7.039,3.774,13.445,5.373,17.9,4.045,18.645,3.868,10.062-12.78,11.068-13.687,3.24-.293,3.755.886.918,11.052.892,13.777.417,3.71,1.386,3.586" transform="translate(-517.511 -815.423)" fill="#1b1d23"/>
    <path id="Path_240" data-name="Path 240" d="M910.517,998.846a93.062,93.062,0,0,1-8.9,28.873c-4.8,9.926-10.907,21.113-15.54,29.346-1.145,2.034-2.2,3.89-3.119,5.5-.491.861-.946,1.654-1.362,2.365-1.045,1.821-1.806,3.123-2.176,3.752-.167.281-.252.43-.252.43l-.74,1.27-5.907,10.114-19.26,14.047-6.511-8.232s.284-.306.775-.843c0,0,0,0,.007,0,2.785-3.033,12.251-13.474,15.224-18.46a56.492,56.492,0,0,0,3.026-6.519c.836-2.034,1.721-4.31,2.6-6.625.64-1.7,1.277-3.425,1.878-5.089,2.333-6.422,4.2-11.956,4.2-11.956l14.2-46.646a9.7,9.7,0,0,1,5.733-1.469,23.855,23.855,0,0,1,9.306,2.521,13.245,13.245,0,0,1,6.042,5.85,15.494,15.494,0,0,1,.779,1.774" transform="translate(-561.024 -655.072)" fill="#fbaea8"/>
    <path id="Path_241" data-name="Path 241" d="M923.449,1175.021c-1.145,2.034-2.2,3.89-3.119,5.5-.491.861-.946,1.654-1.362,2.365-1.045,1.82-1.806,3.122-2.176,3.752a63.217,63.217,0,0,1-9.68-5.021,23.09,23.09,0,0,1-3.958-3.176c.836-2.034,1.721-4.31,2.6-6.625.64-1.7,1.277-3.425,1.878-5.089l9.442,4.95Z" transform="translate(-598.395 -773.029)" fill="#e26889"/>
    <path id="Path_242" data-name="Path 242" d="M963.167,947.772c-.818,1.931-1.722,3.844-2.649,5.715-.092.185-.181.37-.274.551-1.134,2.266-2.29,4.463-3.374,6.551-.32.622-.64,1.234-.943,1.835-7.035,13.833-31.526,52.745-31.526,52.745s-.644-.089-1.743-.352c-.779-.185-1.792-.455-2.969-.839h0a41.247,41.247,0,0,1-6.2-2.607c-.32-.167-.647-.345-.975-.526a36.6,36.6,0,0,1-7.407-5.573l0,0c-.587-.569-1.1-1.1-1.508-1.551-.917-.992-1.412-1.64-1.412-1.64s14.559-43.151,24-63.1q1.712-3.622,3.492-6.725v0c.626-1.1,1.262-2.148,1.9-3.143a41.255,41.255,0,0,1,8.073-9.584c0-.011.01-.014.017-.021a22.728,22.728,0,0,1,2.137-1.579h0c5.192-3.364,10.633-3.5,16.223.085.128.082.256.164.38.253,11.22,7.461,9.318,18.741,4.751,29.509" transform="translate(-597.753 -606.484)" fill="#2f295a"/>
    <path id="Path_243" data-name="Path 243" d="M1128.883,1319.572c.32-.346-.517-5.624-2.465-11.041s-13.85-21-16.75-19.193-1.817,11.491-2.807,18.7a104.139,104.139,0,0,1-3,13.91l-8.226-1.222s-6.031,8.752-8.175,11.745-5.514,7.368-5.168,8.058,7.821-1.618,13.761-4.5,16.327-8.375,16.786-8.989-.476-16.258-.285-17.6,2.3-2.3,3.449-1.729,7.792,7.891,9.519,10,2.7,2.58,3.364,1.863" transform="translate(-717.065 -854.17)" fill="#1b1d23"/>
    <path id="Path_244" data-name="Path 244" d="M1079.829,1149.276l-5.769,23.13-10.277-2.141s.021-.416.057-1.149v0c.192-4.125.757-18.2-.16-23.926a56.368,56.368,0,0,0-1.852-6.942c-.665-2.1-1.448-4.417-2.262-6.753-.6-1.718-1.22-3.443-1.821-5.107-2.33-6.422-4.449-11.863-4.449-11.863l-19.019-44.9c1.43-4.939,7.628-7.685,12.216-8.837a13.26,13.26,0,0,1,10.125,1.476,91.075,91.075,0,0,1,10.775,24.474c.316,1.1.619,2.226.91,3.385,2.685,10.693,5.174,23.194,6.9,32.482.427,2.3.807,4.4,1.134,6.224.117.661.231,1.291.334,1.877.438,2.489.74,4.275.875,5.085.05.324.082.491.082.491l.246,1.447Z" transform="translate(-685.272 -702.559)" fill="#fbaea8"/>
    <path id="Path_245" data-name="Path 245" d="M1123.624,1257.987a63.347,63.347,0,0,1-10.651,2.354,23.042,23.042,0,0,1-5.067.1c-.665-2.1-1.448-4.417-2.262-6.753-.6-1.718-1.22-3.442-1.821-5.107l11.714-2.539,5.743-1.245c.427,2.3.807,4.4,1.134,6.223.117.661.231,1.291.334,1.878.438,2.489.74,4.274.875,5.085" transform="translate(-731.35 -824.758)" fill="#e26889"/>
    <path id="Path_246" data-name="Path 246" d="M1073.462,1067.882s-.551.342-1.561.846c-.715.356-1.668.8-2.816,1.259h0a40.46,40.46,0,0,1-6.5,1.988c-.331.075-.669.142-1.01.206a36.421,36.421,0,0,1-9.257.473h0a32.173,32.173,0,0,1-4.285-.572s-16.5-42.447-22.048-63.809c-2.478-9.552-3.261-17.518-2.152-23.56,0-.007,0-.018,0-.029,1.373-7.454,5.633-11.974,13.133-12.923,11.728-1.49,17.717,5.583,21.359,14.737a83.009,83.009,0,0,1,3.442,11.49c.58,2.464,1.1,4.893,1.611,7.191.153.682.3,1.355.451,2.013,3.474,15.124,9.637,60.69,9.637,60.69" transform="translate(-678.019 -643.72)" fill="#2f295a"/>
    <path id="Path_247" data-name="Path 247" d="M1128.42,1097.208s-.551.342-1.561.846c-.715.355-1.668.8-2.816,1.259h0a40.435,40.435,0,0,1-6.5,1.988c1.4-1.373,2.706-2.966,1.188-2.966-2.667,0-8.713-.534-3.375-2.785a5.533,5.533,0,0,0,1.814-1.216c3.329-3.354,2.617-11.174.982-21.664-.523-3.35-1.668-9.015-3.048-15.448-3.6-16.778-8.819-38.8-8.819-38.8l7-2.593a82.969,82.969,0,0,1,3.442,11.49c.58,2.464,1.1,4.893,1.611,7.191.153.683.3,1.355.452,2.013,3.474,15.124,9.637,60.69,9.637,60.69" transform="translate(-732.977 -673.047)" fill="#232047" fill-rule="evenodd"/>
    <path id="Path_248" data-name="Path 248" d="M1192.489,635.946s-.347,3.625-.888,9.276c-1.8,18.795-5.772,60-6.393,64.75-.3,2.3-.56,7.767-.79,13.914-.385,10.367-.675,22.653-.888,24.888-.334,3.558-2.046,3.1-2.046,3.1L1150.1,735.248l-25.168-13.327,7.787-20.945s-1.421-3.194-3.19-7.534c-3.129-7.673-7.348-18.94-6.748-22.539.942-5.641,13.965-39.875,13.965-39.875l3.824-1.009c-1.073,4.432-3.153,11.615,9.6,12.554s18.056-16.243,18.056-16.243,1.546,0,8.125,1.877,16.142,7.74,16.142,7.74" transform="translate(-743.87 -414.982)" fill="#11afde"/>
    <path id="Path_249" data-name="Path 249" d="M1195.936,674.458c-1.8,18.8-5.772,60-6.393,64.75-.3,2.3-.561,7.767-.79,13.914a29.156,29.156,0,0,1-8.493,6c-4.148,1.985-16.948,4.929-25.83,5.364l-25.168-13.327,7.788-20.945s-1.421-3.194-3.19-7.534a30.554,30.554,0,0,0,8.314.908c5.907-.26,18.9-.078,24.7-1.09s5.741-6.808,5.687-9.442-2.2-5.691-2.2-5.691a101.3,101.3,0,0,1,2.623-16.243c2.4-10.616,11.328-20.665,11.328-20.665Z" transform="translate(-748.205 -444.218)" fill="#7c58ef"/>
    <path id="Path_250" data-name="Path 250" d="M1181.03,513.816c-.594,2.027-3.837,5.405-7.7,4.961,0,0-2.44,8.667-4.229,11.593-1.6,2.614-7.745,6.788-9.64,7.546,0,0-.007,0-.011,0a1.127,1.127,0,0,1-.469.114c-.861-.128-11.892-6.227-13.613-8.179-1.451-1.643-5.245-10.067-7.226-15.3-.377-.992-.687-1.87-.9-2.564-1.362-4.36.829-16.817,6.159-18.724a6.305,6.305,0,0,1,1.558-.331v0c5.31-.487,12.574,4.655,14.961,6.87,1.6,1.487,5.092,5.633,7.582,8.652.043.053.085.1.125.149s.1.117.135.16c1.472,1.793,2.539,3.115,2.539,3.115s1.38-5.477,5.345-6.689c1.764-.541,3.144.708,4.083,2.439a.012.012,0,0,1,0,.007c1.16,2.155,1.636,5.057,1.305,6.177" transform="translate(-753.226 -326.579)" fill="#fbaea8"/>
    <path id="Path_251" data-name="Path 251" d="M1288.585,672.17c-1.063,5.47-3.162,13.03-5.583,20.828-4.868,15.676-11.045,32.319-12.763,34.876-1.6,2.393-4.836,3.193-7.7,2.443a7.511,7.511,0,0,1-3.421-1.9,6.639,6.639,0,0,1-.9-1.1c-1.383-2.112-.356-9.481,1.095-17.539.949-5.242,2.077-10.776,2.838-15.338.363-2.18.644-4.139.782-5.74.011-.128.021-.26.035-.391.9-10.437,3.6-38.759,13.642-38.7,4.666.025,15.178,6.11,11.974,22.568" transform="translate(-833.214 -430.402)" fill="#fbaea8" fill-rule="evenodd"/>
    <path id="Path_252" data-name="Path 252" d="M1161.419,839.442c.057,3.656-2.994,8.819-6.646,8.983-.374.017-.989.028-1.8.035-7.155.067-29.918-.153-43.414.2a33.408,33.408,0,0,1-9.929-.992,15.388,15.388,0,0,1-2.944-1.138c-3.741-1.931-4.559-4.712-4.492-6.373.089-2.276,2.742-3.674,7.54-4.765h.007c1.145-.263,2.415-.505,3.8-.74,7.187-1.209,37.5-6.071,44.232-6.643.683-.057,1.341-.093,1.971-.1,4.168-.043,7.233,1.053,9.189,3.233a8.983,8.983,0,0,1,1.618,2.614,17.306,17.306,0,0,1,.871,5.679" transform="translate(-723.64 -548.545)" fill="#fbaea8" fill-rule="evenodd"/>
    <path id="Path_253" data-name="Path 253" d="M1046.164,846.557a16.553,16.553,0,0,1-5.722,4.918,12.213,12.213,0,0,1-2.372.9c-.306.082-.619.15-.935.206-4.943.914-11.209-.7-13.072-2.279-1.985-1.682-5.48-3.272-6.76-2.585s-4.541,2.7-5.608,2.713a2.7,2.7,0,0,1-1.593-.409.707.707,0,0,1-.334-.541c-.007-.533,2.169-3.46,2.169-3.46a12.145,12.145,0,0,0-2.568.843c-1.28.6-3.268,1.607-3.89,1.483s-2.813-.445-2.785-1.647,1.956-2.877,2.3-3.506.9-2.017-1.131-1.273a22.561,22.561,0,0,1-4.829,1.323,1.571,1.571,0,0,1-.8-2.482c.921-.9,5.459-3.823,6.839-3.887a34.5,34.5,0,0,0,6.042-.452c2.173-.48,6.152-2.1,11.166-.174,4.324,1.661,10.708,3.691,14.954,4.057h.007a12.5,12.5,0,0,0,1.839.039c4-.249,6.027-1.519,6.8-.462s.281,6.671.281,6.671" transform="translate(-661.148 -553.46)" fill="#fbaea8" fill-rule="evenodd"/>
    <path id="Path_254" data-name="Path 254" d="M1134.955,768.991c-4.869,15.676-11.046,32.319-12.763,34.876-1.6,2.394-4.836,3.193-7.7,2.443-7.155.067-29.918-.153-43.414.2a33.41,33.41,0,0,1-9.929-.992c-4.943.914-11.209-.7-13.072-2.28-1.985-1.682-5.48-3.272-6.76-2.585s-4.541,2.7-5.608,2.714a2.7,2.7,0,0,1-1.593-.409c1.291-.352,3.467-1.081,4.435-2.194,1.422-1.639,3.079-3.471,4.875-2.643s6.771,5.214,8.816,6c1.12.43,3.78.391,5.963.263,1.807-.1,3.283-.263,3.283-.263s1.166.131,2.969.291c1.757.157,4.125.338,6.6.448,3.933.174,28.322.349,40.014-.452,3.211-.22,5.462-.516,6.074-.9,1.334-.847,2.475-7.593,3.307-14.506.939-7.8,1.49-15.807,1.49-15.807a70.576,70.576,0,0,0-7.841-2.763c.363-2.18.644-4.14.783-5.74.01-.128.021-.26.035-.391Z" transform="translate(-685.168 -506.394)" fill="#e26889" fill-rule="evenodd"/>
    <path id="Path_255" data-name="Path 255" d="M1264.14,690.24l23.9,5.236s6.981-22.153,7.653-32.491-9.331-15.776-15.037-15.977-10.405,7.518-12.721,17.488-3.792,25.744-3.792,25.744" transform="translate(-837.57 -428.681)" fill="#11afde"/>
    <path id="Path_256" data-name="Path 256" d="M1224.517,542.752c-.594,2.027-3.837,5.405-7.7,4.961,0,0-2.44,8.666-4.229,11.593-1.6,2.614-7.745,6.789-9.641,7.546,0,0-.007,0-.011,0-.26.064-.419.1-.459.11.317-.263,8.826-7.194,10.729-12.532,1.938-5.445,1.262-8.784,2.173-8.162s5.135.178,7.269-3.023c1.333-2,1-4.829.565-6.675,1.159,2.155,1.636,5.057,1.305,6.177" transform="translate(-796.714 -355.515)" fill="#e26889"/>
    <path id="Path_257" data-name="Path 257" d="M1167.5,508.456c-3.005-3.471-18.343-14.932-23.365-13.169-5.1,1.789-6.9,16.7-6.9,16.7-1.362-4.36.828-16.817,6.159-18.724a6.3,6.3,0,0,1,1.558-.331v0c5.309-.487,12.575,4.655,14.961,6.871,1.6,1.486,5.093,5.633,7.582,8.652" transform="translate(-753.227 -326.578)" fill="#e26889"/>
    <path id="Path_258" data-name="Path 258" d="M1019.309,861.395s8.988-6.355,9.432-6.266-2.6,4.011-2.6,4.011-6.352,3.143-6.833,2.255" transform="translate(-675.354 -566.575)" fill="#e26889" fill-rule="evenodd"/>
    <path id="Path_259" data-name="Path 259" d="M1012.257,854.914s6.967-7.788,7.633-7.566-7.273,8.11-7.273,8.11Z" transform="translate(-670.682 -561.418)" fill="#e26889" fill-rule="evenodd"/>
    <path id="Path_260" data-name="Path 260" d="M1057.263,935.851a13.873,13.873,0,0,1-1.724,4.612,65.619,65.619,0,0,1-7.294,6.828c-8.862,5.135-22.237,6.5-31.6,4.691-5.6-1.081-15.885-3.716-26.59-6.967-2.429-.74-4.879-1.5-7.3-2.3-.014,0-.029-.01-.043-.014-.093.185-.181.37-.274.551-1.135,2.266-2.29,4.463-3.375,6.551-.32.622-.64,1.234-.942,1.835-7.034,13.834-31.526,52.745-31.526,52.745s-.644-.089-1.742-.352c-.779-.185-1.792-.456-2.97-.84h0a41.257,41.257,0,0,1-6.195-2.607l2.938-6.237,27.13-57.656s.1-.021.288-.053c.334-.061.953-.157,1.838-.256a68.039,68.039,0,0,1,17.483.6c2.578.391,5.373.939,8.353,1.686,17.059,4.282,60.434,3.759,58.215-1.672s-27.859-19.2-46.088-25.128c-8.073-2.625-17.375-3.848-25.231-4.4-7.9-.548-14.342-.416-16.6-.338h0c-.562.018-.868.032-.868.032l0,0c8.83-5.384,25.253-7.468,40.32-8.083,2.881.338,5.886.758,8.994,1.277,17.276,2.9,35.018,16.814,44.089,24.883a28.594,28.594,0,0,1,.946,5.256,20.625,20.625,0,0,1-.228,5.349" transform="translate(-619.95 -595.701)" fill="#232047" fill-rule="evenodd"/>
    <path id="Path_261" data-name="Path 261" d="M1183.735,763.68l.68,4.2s-10.559,32.489-14.276,34.224-62.4-.2-62.4-.2l2.3-13.974s20.089-3.973,26.672-4.977c5.428-.827,21.362-2.406,21.362-2.406l3.128-24.269Z" transform="translate(-733.947 -501.084)" fill="#11afde"/>
    <path id="Path_262" data-name="Path 262" d="M1196.221,611.451l2.469,5.685-11.176,17.2-5.5-2.97-7.877,13.053-1.129,10.2-2.848-13.447-3.227-8.135-2.76,4.281-.826-17.272,4.637-1.183,6.7,13.579Z" transform="translate(-770.784 -405.125)" fill="#fff"/>
    <path id="Path_263" data-name="Path 263" d="M720.4,627.044h75.532a7.588,7.588,0,0,0,7.588-7.588V577.427a7.588,7.588,0,0,0-7.588-7.588H720.4a7.588,7.588,0,0,0-7.588,7.588v42.029a7.588,7.588,0,0,0,7.588,7.588" transform="translate(-472.278 -377.554)" fill="#b59592"/>
    <path id="Path_264" data-name="Path 264" d="M713.664,627.044H789.2a7.588,7.588,0,0,0,7.588-7.588V577.427a7.588,7.588,0,0,0-7.588-7.588H713.664a7.588,7.588,0,0,0-7.588,7.588v42.029a7.588,7.588,0,0,0,7.588,7.588" transform="translate(-467.818 -377.554)" fill="#fff"/>
    <rect id="Rectangle_156" data-name="Rectangle 156" width="20.585" height="15.727" transform="translate(270.182 221.415)" fill="#b59592"/>
    <rect id="Rectangle_157" data-name="Rectangle 157" width="18.461" height="13.675" transform="translate(270.746 222.369)" fill="#fff"/>
    <path id="Path_265" data-name="Path 265" d="M795.721,715.249h7.6l8.661-37.683h-7.6Z" transform="translate(-527.214 -448.93)" fill="#fff"/>
    <path id="Path_266" data-name="Path 266" d="M818.236,715.249v29.276h3.343V715.249l6.959-30.276-1.641-7.407Z" transform="translate(-542.132 -448.93)" fill="#b59592"/>
    <rect id="Rectangle_158" data-name="Rectangle 158" width="7.597" height="29.276" transform="translate(268.507 266.319)" fill="#fff"/>
    <rect id="Rectangle_159" data-name="Rectangle 159" width="36.771" height="4.862" transform="translate(255.845 295.595)" fill="#b59592"/>
    <rect id="Rectangle_160" data-name="Rectangle 160" width="36.771" height="4.862" transform="translate(247.728 295.595)" fill="#fff"/>
    <rect id="Rectangle_161" data-name="Rectangle 161" width="14.815" height="1.013" transform="translate(246.022 203.688)" fill="#b59592"/>
    <rect id="Rectangle_162" data-name="Rectangle 162" width="14.815" height="1.013" transform="translate(246.022 202.017)" fill="#b59592"/>
    <rect id="Rectangle_163" data-name="Rectangle 163" width="14.815" height="1.013" transform="translate(246.022 200.345)" fill="#b59592"/>
    <rect id="Rectangle_164" data-name="Rectangle 164" width="14.815" height="1.013" transform="translate(246.022 198.674)" fill="#b59592"/>
    <rect id="Rectangle_165" data-name="Rectangle 165" width="95.784" height="10.286" transform="translate(217.623 295.681)" fill="#b59592"/>
    <rect id="Rectangle_166" data-name="Rectangle 166" width="11.895" height="194.939" transform="translate(454.105 290.607)" fill="#b59592"/>
    <rect id="Rectangle_167" data-name="Rectangle 167" width="11.895" height="194.939" transform="translate(410.137 290.607)" fill="#b59592"/>
    <rect id="Rectangle_168" data-name="Rectangle 168" width="275.813" height="14.37" transform="translate(203.668 283.777)" fill="#fff"/>
    <rect id="Rectangle_169" data-name="Rectangle 169" width="56.477" height="14.37" transform="translate(423.005 283.777)" fill="#b59592"/>
  </g>
</svg>
