<svg xmlns="http://www.w3.org/2000/svg" width="2159.178" height="198.851" viewBox="0 0 2159.178 198.851">
  <g id="Group_17601" data-name="Group 17601" transform="translate(-350 -153.45)">
    <rect id="Rectangle_66" data-name="Rectangle 66" width="7.597" height="7.594" transform="translate(350 234.102)" fill="#fff"/>
    <rect id="Rectangle_69" data-name="Rectangle 69" width="16.597" height="16.594" transform="translate(373 244.899)" fill="#fff"/>
    <rect id="Rectangle_73" data-name="Rectangle 73" width="17.396" height="17.391" transform="translate(571.938 168.622)" fill="#fff"/>
    <rect id="Rectangle_68" data-name="Rectangle 68" width="5.597" height="5.594" transform="translate(777.825 226.466)" fill="#fff"/>
    <rect id="Rectangle_72" data-name="Rectangle 72" width="7.865" height="7.862" transform="translate(1051.643 236.259)" fill="#fff"/>
    <rect id="Rectangle_67" data-name="Rectangle 67" width="11.597" height="11.594" transform="translate(876.669 271.484)" fill="#fff"/>
    <rect id="Rectangle_76" data-name="Rectangle 76" width="11.597" height="11.594" transform="translate(784.284 264.159)" fill="#fff"/>
    <rect id="Rectangle_81" data-name="Rectangle 81" width="12.597" height="12.594" transform="translate(913.841 335.909)" fill="#fff"/>
    <rect id="Rectangle_71" data-name="Rectangle 71" width="7.597" height="7.594" transform="translate(647.986 218.21)" fill="#fff"/>
    <rect id="Rectangle_70" data-name="Rectangle 70" width="17.396" height="17.391" transform="translate(513.411 299.806)" fill="#fff"/>
    <rect id="Rectangle_66-2" data-name="Rectangle 66" width="7.597" height="7.594" transform="translate(876.348 210.597)" fill="#fff"/>
    <rect id="Rectangle_69-2" data-name="Rectangle 69" width="16.597" height="16.594" transform="translate(904.08 226.91)" fill="#fff"/>
    <rect id="Rectangle_73-2" data-name="Rectangle 73" width="17.396" height="17.391" transform="translate(990.36 153.45)" fill="#fff"/>
    <rect id="Rectangle_68-2" data-name="Rectangle 68" width="5.597" height="5.594" transform="translate(1246.379 204.085)" fill="#fff"/>
    <rect id="Rectangle_72-2" data-name="Rectangle 72" width="7.865" height="7.862" transform="translate(1483.132 218.777)" fill="#fff"/>
    <rect id="Rectangle_67-2" data-name="Rectangle 67" width="11.597" height="11.594" transform="translate(1353.481 252.425)" fill="#fff"/>
    <rect id="Rectangle_76-2" data-name="Rectangle 76" width="11.597" height="11.594" transform="translate(1251.859 252.341)" fill="#fff"/>
    <rect id="Rectangle_81-2" data-name="Rectangle 81" width="12.597" height="12.594" transform="translate(1448.57 313.112)" fill="#fff"/>
    <rect id="Rectangle_71-2" data-name="Rectangle 71" width="7.597" height="7.594" transform="translate(1134.057 201.497)" fill="#fff"/>
    <rect id="Rectangle_70-2" data-name="Rectangle 70" width="17.396" height="17.391" transform="translate(1042.658 279.749)" fill="#fff"/>
    <rect id="Rectangle_75" data-name="Rectangle 75" width="7.597" height="7.595" transform="translate(876.348 317.111)" fill="#fff"/>
    <rect id="Rectangle_17003" data-name="Rectangle 17003" width="7.597" height="7.594" transform="translate(1368.181 210.248)" fill="#fff"/>
    <rect id="Rectangle_17004" data-name="Rectangle 17004" width="16.597" height="16.594" transform="translate(1391.181 221.091)" fill="#fff"/>
    <rect id="Rectangle_17005" data-name="Rectangle 17005" width="5.597" height="5.594" transform="translate(1796.006 202.602)" fill="#fff"/>
    <rect id="Rectangle_17006" data-name="Rectangle 17006" width="7.865" height="7.862" transform="translate(2069.824 212.406)" fill="#fff"/>
    <rect id="Rectangle_17007" data-name="Rectangle 17007" width="11.597" height="11.594" transform="translate(1894.851 247.65)" fill="#fff"/>
    <rect id="Rectangle_17008" data-name="Rectangle 17008" width="11.597" height="11.594" transform="translate(1802.465 240.326)" fill="#fff"/>
    <rect id="Rectangle_17009" data-name="Rectangle 17009" width="7.597" height="7.594" transform="translate(1666.167 194.356)" fill="#fff"/>
    <rect id="Rectangle_17010" data-name="Rectangle 17010" width="17.396" height="17.391" transform="translate(1531.592 276.4)" fill="#fff"/>
    <rect id="Rectangle_17011" data-name="Rectangle 17011" width="7.597" height="7.594" transform="translate(1894.529 210.186)" fill="#fff"/>
    <rect id="Rectangle_17012" data-name="Rectangle 17012" width="16.597" height="16.594" transform="translate(1922.261 203.103)" fill="#fff"/>
    <rect id="Rectangle_17013" data-name="Rectangle 17013" width="5.597" height="5.594" transform="translate(2264.56 181.287)" fill="#fff"/>
    <rect id="Rectangle_17014" data-name="Rectangle 17014" width="7.865" height="7.862" transform="translate(2501.313 194.925)" fill="#fff"/>
    <rect id="Rectangle_17015" data-name="Rectangle 17015" width="11.597" height="11.594" transform="translate(2371.663 228.591)" fill="#fff"/>
    <rect id="Rectangle_17016" data-name="Rectangle 17016" width="11.597" height="11.594" transform="translate(2270.04 228.507)" fill="#fff"/>
    <rect id="Rectangle_17017" data-name="Rectangle 17017" width="12.597" height="12.594" transform="translate(2466.751 335.11)" fill="#fff"/>
    <rect id="Rectangle_17018" data-name="Rectangle 17018" width="7.597" height="7.594" transform="translate(2152.238 178.617)" fill="#fff"/>
    <rect id="Rectangle_17019" data-name="Rectangle 17019" width="17.396" height="17.391" transform="translate(2060.839 255.539)" fill="#fff"/>
    <rect id="Rectangle_17020" data-name="Rectangle 17020" width="7.597" height="7.595" transform="translate(1938.858 344.705)" fill="#fff"/>
  </g>
</svg>
